<svg width="787" height="117" viewBox="0 0 787 117" fill="none" xmlns="http://www.w3.org/2000/svg">
<rect width="787" height="117" fill="white"/>
<rect x="31" y="30" width="2" height="4" fill="#C4C4C4"/>
<rect x="34" y="30" width="2" height="4" fill="#C4C4C4"/>
<rect x="37" y="30" width="2" height="4" fill="#C4C4C4"/>
<rect x="40" y="30" width="2" height="4" fill="#C4C4C4"/>
<rect x="43" y="30" width="2" height="4" fill="#C4C4C4"/>
<rect x="46" y="30" width="2" height="4" fill="#C4C4C4"/>
<rect x="49" y="30" width="2" height="4" fill="#C4C4C4"/>
<rect x="52" y="30" width="2" height="4" fill="#C4C4C4"/>
<rect x="55" y="30" width="2" height="4" fill="#C4C4C4"/>
<rect x="58" y="30" width="2" height="4" fill="#C4C4C4"/>
<rect x="61" y="30" width="2" height="4" fill="#C4C4C4"/>
<rect x="64" y="30" width="2" height="4" fill="#C4C4C4"/>
<rect x="67" y="30" width="2" height="4" fill="#C4C4C4"/>
<rect x="70" y="30" width="2" height="4" fill="#C4C4C4"/>
<rect x="73" y="30" width="2" height="4" fill="#C4C4C4"/>
<rect x="76" y="30" width="2" height="4" fill="#C4C4C4"/>
<rect x="79" y="30" width="2" height="4" fill="#C4C4C4"/>
<rect x="82" y="30" width="2" height="4" fill="#C4C4C4"/>
<rect x="85" y="30" width="2" height="4" fill="#C4C4C4"/>
<rect x="88" y="30" width="2" height="4" fill="#C4C4C4"/>
<rect x="91" y="30" width="2" height="4" fill="#C4C4C4"/>
<rect x="94" y="30" width="2" height="4" fill="#C4C4C4"/>
<rect x="97" y="30" width="2" height="4" fill="#C4C4C4"/>
<rect x="100" y="30" width="2" height="4" fill="#C4C4C4"/>
<rect x="103" y="30" width="2" height="4" fill="#C4C4C4"/>
<rect x="106" y="30" width="2" height="4" fill="#C4C4C4"/>
<rect x="109" y="30" width="2" height="4" fill="#C4C4C4"/>
<rect x="112" y="30" width="2" height="4" fill="#C4C4C4"/>
<rect x="115" y="30" width="2" height="4" fill="#C4C4C4"/>
<rect x="118" y="30" width="2" height="4" fill="#C4C4C4"/>
<rect x="121" y="30" width="2" height="4" fill="#C4C4C4"/>
<rect x="124" y="30" width="2" height="4" fill="#C4C4C4"/>
<rect x="127" y="30" width="2" height="4" fill="#C4C4C4"/>
<rect x="130" y="30" width="2" height="4" fill="#C4C4C4"/>
<rect x="133" y="30" width="2" height="4" fill="#C4C4C4"/>
<rect x="136" y="30" width="2" height="4" fill="#C4C4C4"/>
<rect x="139" y="30" width="2" height="4" fill="#C4C4C4"/>
<rect x="142" y="30" width="2" height="4" fill="#C4C4C4"/>
<rect x="145" y="30" width="2" height="4" fill="#C4C4C4"/>
<rect x="148" y="30" width="2" height="4" fill="#C4C4C4"/>
<rect x="151" y="30" width="2" height="4" fill="#C4C4C4"/>
<rect x="154" y="30" width="2" height="4" fill="#C4C4C4"/>
<rect x="157" y="30" width="2" height="4" fill="#C4C4C4"/>
<rect x="160" y="30" width="2" height="4" fill="#C4C4C4"/>
<rect x="163" y="30" width="2" height="4" fill="#C4C4C4"/>
<rect x="166" y="30" width="2" height="4" fill="#C4C4C4"/>
<rect x="169" y="30" width="2" height="4" fill="#C4C4C4"/>
<rect x="172" y="30" width="2" height="4" fill="#C4C4C4"/>
<rect x="175" y="30" width="2" height="4" fill="#C4C4C4"/>
<rect x="178" y="30" width="2" height="4" fill="#C4C4C4"/>
<rect x="181" y="30" width="2" height="4" fill="#C4C4C4"/>
<rect x="184" y="30" width="2" height="4" fill="#C4C4C4"/>
<rect x="187" y="30" width="2" height="4" fill="#C4C4C4"/>
<rect x="190" y="30" width="2" height="4" fill="#C4C4C4"/>
<rect x="193" y="30" width="2" height="4" fill="#C4C4C4"/>
<rect x="196" y="30" width="2" height="4" fill="#C4C4C4"/>
<rect x="199" y="30" width="2" height="4" fill="#C4C4C4"/>
<rect x="202" y="30" width="2" height="4" fill="#C4C4C4"/>
<rect x="205" y="30" width="2" height="4" fill="#C4C4C4"/>
<rect x="208" y="30" width="2" height="4" fill="#C4C4C4"/>
<rect x="211" y="30" width="2" height="4" fill="#C4C4C4"/>
<rect x="214" y="30" width="2" height="4" fill="#C4C4C4"/>
<rect x="217" y="30" width="2" height="4" fill="#C4C4C4"/>
<rect x="220" y="30" width="2" height="4" fill="#C4C4C4"/>
<rect x="223" y="30" width="2" height="4" fill="#C4C4C4"/>
<rect x="226" y="30" width="2" height="4" fill="#C4C4C4"/>
<rect x="229" y="30" width="2" height="4" fill="#C4C4C4"/>
<rect x="232" y="30" width="2" height="4" fill="#C4C4C4"/>
<rect x="235" y="30" width="2" height="4" fill="#C4C4C4"/>
<rect x="238" y="30" width="2" height="4" fill="#C4C4C4"/>
<rect x="241" y="30" width="2" height="4" fill="#C4C4C4"/>
<rect x="244" y="30" width="2" height="4" fill="#C4C4C4"/>
<rect x="247" y="30" width="2" height="4" fill="#C4C4C4"/>
<rect x="250" y="30" width="2" height="4" fill="#C4C4C4"/>
<rect x="253" y="30" width="2" height="4" fill="#C4C4C4"/>
<rect x="256" y="30" width="2" height="4" fill="#C4C4C4"/>
<rect x="259" y="30" width="2" height="4" fill="#C4C4C4"/>
<rect x="262" y="30" width="2" height="4" fill="#C4C4C4"/>
<rect x="265" y="30" width="2" height="4" fill="#C4C4C4"/>
<rect x="268" y="30" width="2" height="4" fill="#C4C4C4"/>
<rect x="271" y="30" width="2" height="4" fill="#C4C4C4"/>
<rect x="274" y="30" width="2" height="4" fill="#C4C4C4"/>
<rect x="277" y="30" width="2" height="4" fill="#C4C4C4"/>
<rect x="280" y="30" width="2" height="4" fill="#C4C4C4"/>
<rect x="283" y="30" width="2" height="4" fill="#C4C4C4"/>
<rect x="286" y="30" width="2" height="4" fill="#C4C4C4"/>
<rect x="289" y="30" width="2" height="4" fill="#C4C4C4"/>
<rect x="292" y="30" width="2" height="4" fill="#C4C4C4"/>
<rect x="295" y="30" width="2" height="4" fill="#C4C4C4"/>
<rect x="298" y="30" width="2" height="4" fill="#C4C4C4"/>
<rect x="301" y="30" width="2" height="4" fill="#C4C4C4"/>
<rect x="304" y="30" width="2" height="4" fill="#C4C4C4"/>
<rect x="307" y="30" width="2" height="4" fill="#C4C4C4"/>
<rect x="310" y="30" width="2" height="4" fill="#C4C4C4"/>
<rect x="313" y="30" width="2" height="4" fill="#C4C4C4"/>
<rect x="316" y="30" width="2" height="4" fill="#C4C4C4"/>
<rect x="319" y="30" width="2" height="4" fill="#C4C4C4"/>
<rect x="322" y="30" width="2" height="4" fill="#C4C4C4"/>
<rect x="325" y="30" width="2" height="4" fill="#C4C4C4"/>
<rect x="328" y="30" width="2" height="4" fill="#C4C4C4"/>
<rect x="331" y="30" width="2" height="4" fill="#C4C4C4"/>
<rect x="334" y="30" width="2" height="4" fill="#C4C4C4"/>
<rect x="337" y="30" width="2" height="4" fill="#C4C4C4"/>
<rect x="340" y="30" width="2" height="4" fill="#C4C4C4"/>
<rect x="343" y="30" width="2" height="4" fill="#C4C4C4"/>
<rect x="346" y="30" width="2" height="4" fill="#C4C4C4"/>
<rect x="349" y="30" width="2" height="4" fill="#C4C4C4"/>
<rect x="352" y="30" width="2" height="4" fill="#C4C4C4"/>
<rect x="355" y="30" width="2" height="4" fill="#C4C4C4"/>
<rect x="358" y="30" width="2" height="4" fill="#C4C4C4"/>
<rect x="361" y="30" width="2" height="4" fill="#C4C4C4"/>
<rect x="364" y="30" width="2" height="4" fill="#C4C4C4"/>
<rect x="367" y="30" width="2" height="4" fill="#C4C4C4"/>
<rect x="370" y="30" width="2" height="4" fill="#C4C4C4"/>
<rect x="373" y="30" width="2" height="4" fill="#C4C4C4"/>
<rect x="376" y="30" width="2" height="4" fill="#C4C4C4"/>
<rect x="379" y="30" width="2" height="4" fill="#C4C4C4"/>
<rect x="382" y="30" width="2" height="4" fill="#C4C4C4"/>
<rect x="385" y="30" width="2" height="4" fill="#C4C4C4"/>
<rect x="388" y="30" width="2" height="4" fill="#C4C4C4"/>
<rect x="391" y="30" width="2" height="4" fill="#C4C4C4"/>
<rect x="394" y="30" width="2" height="4" fill="#C4C4C4"/>
<rect x="397" y="30" width="2" height="4" fill="#C4C4C4"/>
<rect x="400" y="30" width="2" height="4" fill="#C4C4C4"/>
<rect x="403" y="30" width="2" height="4" fill="#C4C4C4"/>
<rect x="406" y="30" width="2" height="4" fill="#C4C4C4"/>
<rect x="409" y="30" width="2" height="4" fill="#C4C4C4"/>
<rect x="412" y="30" width="2" height="4" fill="#C4C4C4"/>
<rect x="415" y="30" width="2" height="4" fill="#C4C4C4"/>
<rect x="418" y="30" width="2" height="4" fill="#C4C4C4"/>
<rect x="421" y="30" width="2" height="4" fill="#C4C4C4"/>
<rect x="424" y="30" width="2" height="4" fill="#C4C4C4"/>
<rect x="427" y="30" width="2" height="4" fill="#C4C4C4"/>
<rect x="430" y="30" width="2" height="4" fill="#C4C4C4"/>
<rect x="433" y="30" width="2" height="4" fill="#C4C4C4"/>
<rect x="436" y="30" width="2" height="4" fill="#C4C4C4"/>
<rect x="439" y="30" width="2" height="4" fill="#C4C4C4"/>
<rect x="442" y="30" width="2" height="4" fill="#C4C4C4"/>
<rect x="445" y="30" width="2" height="4" fill="#C4C4C4"/>
<rect x="448" y="30" width="2" height="4" fill="#C4C4C4"/>
<rect x="451" y="30" width="2" height="4" fill="#C4C4C4"/>
<rect x="454" y="30" width="2" height="4" fill="#C4C4C4"/>
<rect x="457" y="30" width="2" height="4" fill="#C4C4C4"/>
<rect x="460" y="30" width="2" height="4" fill="#C4C4C4"/>
<rect x="463" y="30" width="2" height="4" fill="#C4C4C4"/>
<rect x="466" y="30" width="2" height="4" fill="#C4C4C4"/>
<rect x="469" y="30" width="2" height="4" fill="#C4C4C4"/>
<rect x="472" y="30" width="2" height="4" fill="#C4C4C4"/>
<rect x="475" y="30" width="2" height="4" fill="#C4C4C4"/>
<rect x="478" y="30" width="2" height="4" fill="#C4C4C4"/>
<rect x="481" y="30" width="2" height="4" fill="#C4C4C4"/>
<rect x="484" y="30" width="2" height="4" fill="#C4C4C4"/>
<rect x="487" y="30" width="2" height="4" fill="#C4C4C4"/>
<rect x="490" y="30" width="2" height="4" fill="#C4C4C4"/>
<rect x="493" y="30" width="2" height="4" fill="#C4C4C4"/>
<rect x="496" y="30" width="2" height="4" fill="#C4C4C4"/>
<rect x="499" y="30" width="2" height="4" fill="#C4C4C4"/>
<rect x="502" y="30" width="2" height="4" fill="#C4C4C4"/>
<rect x="505" y="30" width="2" height="4" fill="#C4C4C4"/>
<rect x="508" y="30" width="2" height="4" fill="#C4C4C4"/>
<rect x="511" y="30" width="2" height="4" fill="#C4C4C4"/>
<rect x="514" y="30" width="2" height="4" fill="#C4C4C4"/>
<rect x="517" y="30" width="2" height="4" fill="#C4C4C4"/>
<rect x="520" y="30" width="2" height="4" fill="#C4C4C4"/>
<rect x="523" y="30" width="2" height="4" fill="#C4C4C4"/>
<rect x="526" y="30" width="2" height="4" fill="#C4C4C4"/>
<rect x="529" y="30" width="2" height="4" fill="#C4C4C4"/>
<rect x="532" y="30" width="2" height="4" fill="#C4C4C4"/>
<rect x="535" y="30" width="2" height="4" fill="#C4C4C4"/>
<rect x="538" y="30" width="2" height="4" fill="#C4C4C4"/>
<rect x="541" y="30" width="2" height="4" fill="#C4C4C4"/>
<rect x="544" y="30" width="2" height="4" fill="#C4C4C4"/>
<rect x="547" y="30" width="2" height="4" fill="#C4C4C4"/>
<rect x="550" y="30" width="2" height="4" fill="#C4C4C4"/>
<rect x="553" y="30" width="2" height="4" fill="#C4C4C4"/>
<rect x="556" y="30" width="2" height="4" fill="#C4C4C4"/>
<rect x="559" y="30" width="2" height="4" fill="#C4C4C4"/>
<rect x="562" y="30" width="2" height="4" fill="#C4C4C4"/>
<rect x="565" y="30" width="2" height="4" fill="#C4C4C4"/>
<rect x="568" y="30" width="2" height="4" fill="#C4C4C4"/>
<rect x="571" y="30" width="2" height="4" fill="#C4C4C4"/>
<rect x="574" y="30" width="2" height="4" fill="#C4C4C4"/>
<rect x="577" y="30" width="2" height="4" fill="#C4C4C4"/>
<rect x="580" y="30" width="2" height="4" fill="#C4C4C4"/>
<rect x="583" y="30" width="2" height="4" fill="#C4C4C4"/>
<rect x="586" y="30" width="2" height="4" fill="#C4C4C4"/>
<rect x="589" y="30" width="2" height="4" fill="#C4C4C4"/>
<rect x="592" y="30" width="2" height="4" fill="#C4C4C4"/>
<rect x="595" y="30" width="2" height="4" fill="#C4C4C4"/>
<rect x="598" y="30" width="2" height="4" fill="#C4C4C4"/>
<rect x="601" y="30" width="2" height="4" fill="#C4C4C4"/>
<rect x="604" y="30" width="2" height="4" fill="#C4C4C4"/>
<rect x="607" y="30" width="2" height="4" fill="#C4C4C4"/>
<rect x="610" y="30" width="2" height="4" fill="#C4C4C4"/>
<rect x="613" y="30" width="2" height="4" fill="#C4C4C4"/>
<rect x="616" y="30" width="2" height="4" fill="#C4C4C4"/>
<rect x="619" y="30" width="2" height="4" fill="#C4C4C4"/>
<rect x="622" y="30" width="2" height="4" fill="#C4C4C4"/>
<rect x="625" y="30" width="2" height="4" fill="#C4C4C4"/>
<rect x="628" y="30" width="2" height="4" fill="#C4C4C4"/>
<rect x="631" y="30" width="2" height="4" fill="#C4C4C4"/>
<rect x="634" y="30" width="2" height="4" fill="#C4C4C4"/>
<rect x="637" y="30" width="2" height="4" fill="#C4C4C4"/>
<rect x="640" y="30" width="2" height="4" fill="#C4C4C4"/>
<rect x="643" y="30" width="2" height="4" fill="#C4C4C4"/>
<rect x="646" y="30" width="2" height="4" fill="#C4C4C4"/>
<rect x="649" y="30" width="2" height="4" fill="#C4C4C4"/>
<rect x="652" y="30" width="2" height="4" fill="#C4C4C4"/>
<rect x="655" y="30" width="2" height="4" fill="#C4C4C4"/>
<rect x="658" y="30" width="2" height="4" fill="#C4C4C4"/>
<rect x="661" y="30" width="2" height="4" fill="#C4C4C4"/>
<rect x="664" y="30" width="2" height="4" fill="#C4C4C4"/>
<rect x="667" y="30" width="2" height="4" fill="#C4C4C4"/>
<rect x="670" y="30" width="2" height="4" fill="#C4C4C4"/>
<rect x="673" y="30" width="2" height="4" fill="#C4C4C4"/>
<rect x="676" y="30" width="2" height="4" fill="#C4C4C4"/>
<rect x="679" y="30" width="2" height="4" fill="#C4C4C4"/>
<rect x="682" y="30" width="2" height="4" fill="#C4C4C4"/>
<rect x="685" y="30" width="2" height="4" fill="#C4C4C4"/>
<rect x="688" y="30" width="2" height="4" fill="#C4C4C4"/>
<rect x="691" y="30" width="2" height="4" fill="#C4C4C4"/>
<rect x="694" y="30" width="2" height="4" fill="#C4C4C4"/>
<rect x="697" y="30" width="2" height="4" fill="#C4C4C4"/>
<rect x="700" y="30" width="2" height="4" fill="#C4C4C4"/>
<rect x="703" y="30" width="2" height="4" fill="#C4C4C4"/>
<rect x="706" y="30" width="2" height="4" fill="#C4C4C4"/>
<rect x="709" y="30" width="2" height="4" fill="#C4C4C4"/>
<rect x="712" y="30" width="2" height="4" fill="#C4C4C4"/>
<rect x="715" y="30" width="2" height="4" fill="#C4C4C4"/>
<rect x="718" y="30" width="2" height="4" fill="#C4C4C4"/>
<rect x="721" y="30" width="2" height="4" fill="#C4C4C4"/>
<rect x="724" y="30" width="2" height="4" fill="#C4C4C4"/>
<rect x="727" y="30" width="2" height="4" fill="#C4C4C4"/>
<rect x="730" y="30" width="2" height="4" fill="#C4C4C4"/>
<rect x="733" y="30" width="2" height="4" fill="#C4C4C4"/>
<rect x="736" y="30" width="2" height="4" fill="#C4C4C4"/>
<rect x="739" y="30" width="2" height="4" fill="#C4C4C4"/>
<rect x="742" y="30" width="2" height="4" fill="#C4C4C4"/>
<rect x="745" y="30" width="2" height="4" fill="#C4C4C4"/>
<rect x="748" y="30" width="2" height="4" fill="#C4C4C4"/>
<rect x="751" y="30" width="2" height="4" fill="#C4C4C4"/>
<rect x="754" y="30" width="2" height="4" fill="#C4C4C4"/>
<rect x="757" y="30" width="2" height="4" fill="#C4C4C4"/>
<rect x="31" y="50" width="2" height="26" fill="#3D9726"/>
<rect x="34" y="50" width="2" height="26" fill="#3D9726"/>
<rect x="37" y="50" width="2" height="26" fill="#3D9726"/>
<rect x="40" y="50" width="2" height="26" fill="#3D9726"/>
<rect x="43" y="50" width="2" height="26" fill="#3D9726"/>
<rect x="46" y="50" width="2" height="26" fill="#3D9726"/>
<rect x="49" y="50" width="2" height="26" fill="#3D9726"/>
<rect x="52" y="50" width="2" height="26" fill="#9CCA62"/>
<rect x="55" y="50" width="2" height="26" fill="#9CCA62"/>
<rect x="58" y="50" width="2" height="26" fill="#9CCA62"/>
<rect x="61" y="50" width="2" height="26" fill="#9CCA62"/>
<rect x="64" y="50" width="2" height="26" fill="#9CCA62"/>
<rect x="67" y="50" width="2" height="26" fill="#9CCA62"/>
<rect x="70" y="50" width="2" height="26" fill="#9CCA62"/>
<rect x="73" y="50" width="2" height="26" fill="#9CCA62"/>
<rect x="76" y="50" width="2" height="26" fill="#9CCA62"/>
<rect x="79" y="50" width="2" height="26" fill="#9CCA62"/>
<rect x="82" y="50" width="2" height="26" fill="#9CCA62"/>
<rect x="85" y="50" width="2" height="26" fill="#9CCA62"/>
<rect x="88" y="50" width="2" height="26" fill="#9CCA62"/>
<rect x="91" y="50" width="2" height="26" fill="#9CCA62"/>
<rect x="94" y="50" width="2" height="26" fill="#9CCA62"/>
<rect x="97" y="50" width="2" height="26" fill="#9CCA62"/>
<rect x="100" y="50" width="2" height="26" fill="#9CCA62"/>
<rect x="103" y="50" width="2" height="26" fill="#9CCA62"/>
<rect x="106" y="50" width="2" height="26" fill="#9CCA62"/>
<rect x="109" y="50" width="2" height="26" fill="#9CCA62"/>
<rect x="112" y="50" width="2" height="26" fill="#9CCA62"/>
<rect x="115" y="50" width="2" height="26" fill="#413CF0"/>
<rect x="118" y="50" width="2" height="26" fill="#413CF0"/>
<rect x="121" y="50" width="2" height="26" fill="#413CF0"/>
<rect x="124" y="50" width="2" height="26" fill="#413CF0"/>
<rect x="127" y="50" width="2" height="26" fill="#413CF0"/>
<rect x="130" y="50" width="2" height="26" fill="#413CF0"/>
<rect x="133" y="50" width="2" height="26" fill="#413CF0"/>
<rect x="136" y="50" width="2" height="26" fill="#413CF0"/>
<rect x="139" y="50" width="2" height="26" fill="#413CF0"/>
<rect x="142" y="50" width="2" height="26" fill="#413CF0"/>
<rect x="145" y="50" width="2" height="26" fill="#413CF0"/>
<rect x="148" y="50" width="2" height="26" fill="#413CF0"/>
<rect x="151" y="50" width="2" height="26" fill="#413CF0"/>
<rect x="154" y="50" width="2" height="26" fill="#413CF0"/>
<rect x="157" y="50" width="2" height="26" fill="#413CF0"/>
<rect x="160" y="50" width="2" height="26" fill="#413CF0"/>
<rect x="163" y="50" width="2" height="26" fill="#413CF0"/>
<rect x="166" y="50" width="2" height="26" fill="#413CF0"/>
<rect x="169" y="50" width="2" height="26" fill="#413CF0"/>
<rect x="172" y="50" width="2" height="26" fill="#413CF0"/>
<rect x="175" y="50" width="2" height="26" fill="#413CF0"/>
<rect x="178" y="50" width="2" height="26" fill="#413CF0"/>
<rect x="181" y="50" width="2" height="26" fill="#413CF0"/>
<rect x="184" y="50" width="2" height="26" fill="#413CF0"/>
<rect x="187" y="50" width="2" height="26" fill="#413CF0"/>
<rect x="190" y="50" width="2" height="26" fill="#413CF0"/>
<rect x="193" y="50" width="2" height="26" fill="#413CF0"/>
<rect x="196" y="50" width="2" height="26" fill="#413CF0"/>
<rect x="199" y="50" width="2" height="26" fill="#413CF0"/>
<rect x="202" y="50" width="2" height="26" fill="#413CF0"/>
<rect x="205" y="50" width="2" height="26" fill="#413CF0"/>
<rect x="208" y="50" width="2" height="26" fill="#413CF0"/>
<rect x="211" y="50" width="2" height="26" fill="#413CF0"/>
<rect x="214" y="50" width="2" height="26" fill="#413CF0"/>
<rect x="217" y="50" width="2" height="26" fill="#413CF0"/>
<rect x="220" y="50" width="2" height="26" fill="#413CF0"/>
<rect x="223" y="50" width="2" height="26" fill="#413CF0"/>
<rect x="226" y="50" width="2" height="26" fill="#413CF0"/>
<rect x="229" y="50" width="2" height="26" fill="#413CF0"/>
<rect x="232" y="50" width="2" height="26" fill="#413CF0"/>
<rect x="235" y="50" width="2" height="26" fill="#413CF0"/>
<rect x="238" y="50" width="2" height="26" fill="#413CF0"/>
<rect x="241" y="50" width="2" height="26" fill="#413CF0"/>
<rect x="244" y="50" width="2" height="26" fill="#413CF0"/>
<rect x="247" y="50" width="2" height="26" fill="#413CF0"/>
<rect x="250" y="50" width="2" height="26" fill="#413CF0"/>
<rect x="253" y="50" width="2" height="26" fill="#413CF0"/>
<rect x="256" y="50" width="2" height="26" fill="#413CF0"/>
<rect x="259" y="50" width="2" height="26" fill="#413CF0"/>
<rect x="262" y="50" width="2" height="26" fill="#413CF0"/>
<rect x="265" y="50" width="2" height="26" fill="#413CF0"/>
<rect x="268" y="50" width="2" height="26" fill="#413CF0"/>
<rect x="271" y="50" width="2" height="26" fill="#413CF0"/>
<rect x="274" y="50" width="2" height="26" fill="#413CF0"/>
<rect x="277" y="50" width="2" height="26" fill="#413CF0"/>
<rect x="280" y="50" width="2" height="26" fill="#413CF0"/>
<rect x="283" y="50" width="2" height="26" fill="#413CF0"/>
<rect x="286" y="50" width="2" height="26" fill="#413CF0"/>
<rect x="289" y="50" width="2" height="26" fill="#413CF0"/>
<rect x="292" y="50" width="2" height="26" fill="#413CF0"/>
<rect x="295" y="50" width="2" height="26" fill="#413CF0"/>
<rect x="298" y="50" width="2" height="26" fill="#413CF0"/>
<rect x="301" y="50" width="2" height="26" fill="#F0E22F"/>
<rect x="304" y="50" width="2" height="26" fill="#F0E22F"/>
<rect x="307" y="50" width="2" height="26" fill="#F0E22F"/>
<rect x="310" y="50" width="2" height="26" fill="#F0E22F"/>
<rect x="313" y="50" width="2" height="26" fill="#F0E22F"/>
<rect x="316" y="50" width="2" height="26" fill="#F0E22F"/>
<rect x="319" y="50" width="2" height="26" fill="#F0E22F"/>
<rect x="322" y="50" width="2" height="26" fill="#F0E22F"/>
<rect x="325" y="50" width="2" height="26" fill="#F0E22F"/>
<rect x="328" y="50" width="2" height="26" fill="#F0E22F"/>
<rect x="331" y="50" width="2" height="26" fill="#F0E22F"/>
<rect x="334" y="50" width="2" height="26" fill="#F0E22F"/>
<rect x="337" y="50" width="2" height="26" fill="#F0E22F"/>
<rect x="340" y="50" width="2" height="26" fill="#F0E22F"/>
<rect x="343" y="50" width="2" height="26" fill="#F0E22F"/>
<rect x="346" y="50" width="2" height="26" fill="#F0E22F"/>
<rect x="349" y="50" width="2" height="26" fill="#F0E22F"/>
<rect x="352" y="50" width="2" height="26" fill="#F0E22F"/>
<rect x="355" y="50" width="2" height="26" fill="#F0E22F"/>
<rect x="358" y="50" width="2" height="26" fill="#F0E22F"/>
<rect x="361" y="50" width="2" height="26" fill="#F0E22F"/>
<rect x="364" y="50" width="2" height="26" fill="#F0E22F"/>
<rect x="367" y="50" width="2" height="26" fill="#F0E22F"/>
<rect x="370" y="50" width="2" height="26" fill="#F0E22F"/>
<rect x="373" y="50" width="2" height="26" fill="#F0E22F"/>
<rect x="376" y="50" width="2" height="26" fill="#F0E22F"/>
<rect x="379" y="50" width="2" height="26" fill="#F0E22F"/>
<rect x="382" y="50" width="2" height="26" fill="#F0E22F"/>
<rect x="385" y="50" width="2" height="26" fill="#F0E22F"/>
<rect x="388" y="50" width="2" height="26" fill="#F0E22F"/>
<rect x="391" y="50" width="2" height="26" fill="#F0E22F"/>
<rect x="394" y="50" width="2" height="26" fill="#F0E22F"/>
<rect x="397" y="50" width="2" height="26" fill="#F0E22F"/>
<rect x="400" y="50" width="2" height="26" fill="#F0E22F"/>
<rect x="403" y="50" width="2" height="26" fill="#F0E22F"/>
<rect x="406" y="50" width="2" height="26" fill="#F0E22F"/>
<rect x="409" y="50" width="2" height="26" fill="#F0E22F"/>
<rect x="412" y="50" width="2" height="26" fill="#F0E22F"/>
<rect x="415" y="50" width="2" height="26" fill="#F0E22F"/>
<rect x="418" y="50" width="2" height="26" fill="#F0E22F"/>
<rect x="421" y="50" width="2" height="26" fill="#F0E22F"/>
<rect x="424" y="50" width="2" height="26" fill="#F0E22F"/>
<rect x="427" y="50" width="2" height="26" fill="#F0E22F"/>
<rect x="430" y="50" width="2" height="26" fill="#F0E22F"/>
<rect x="433" y="50" width="2" height="26" fill="#F0E22F"/>
<rect x="436" y="50" width="2" height="26" fill="#F0E22F"/>
<rect x="439" y="50" width="2" height="26" fill="#F0E22F"/>
<rect x="442" y="50" width="2" height="26" fill="#F0E22F"/>
<rect x="445" y="50" width="2" height="26" fill="#F0E22F"/>
<rect x="448" y="50" width="2" height="26" fill="#F0E22F"/>
<rect x="451" y="50" width="2" height="26" fill="#F0E22F"/>
<rect x="454" y="50" width="2" height="26" fill="#F0E22F"/>
<rect x="457" y="50" width="2" height="26" fill="#F0B61F"/>
<rect x="460" y="50" width="2" height="26" fill="#F0B61F"/>
<rect x="463" y="50" width="2" height="26" fill="#F0B61F"/>
<rect x="466" y="50" width="2" height="26" fill="#F0B61F"/>
<rect x="469" y="50" width="2" height="26" fill="#F0B61F"/>
<rect x="472" y="50" width="2" height="26" fill="#F0B61F"/>
<rect x="475" y="50" width="2" height="26" fill="#F0B61F"/>
<rect x="478" y="50" width="2" height="26" fill="#F0B61F"/>
<rect x="481" y="50" width="2" height="26" fill="#F0B61F"/>
<rect x="484" y="50" width="2" height="26" fill="#F0B61F"/>
<rect x="487" y="50" width="2" height="26" fill="#F0B61F"/>
<rect x="490" y="50" width="2" height="26" fill="#F0B61F"/>
<rect x="493" y="50" width="2" height="26" fill="#F0B61F"/>
<rect x="496" y="50" width="2" height="26" fill="#F0B61F"/>
<rect x="499" y="50" width="2" height="26" fill="#F0B61F"/>
<rect x="502" y="50" width="2" height="26" fill="#F0B61F"/>
<rect x="505" y="50" width="2" height="26" fill="#F0B61F"/>
<rect x="508" y="50" width="2" height="26" fill="#F0B61F"/>
<rect x="511" y="50" width="2" height="26" fill="#F0B61F"/>
<rect x="514" y="50" width="2" height="26" fill="#F0B61F"/>
<rect x="517" y="50" width="2" height="26" fill="#F0B61F"/>
<rect x="520" y="50" width="2" height="26" fill="#F0B61F"/>
<rect x="523" y="50" width="2" height="26" fill="#F0B61F"/>
<rect x="526" y="50" width="2" height="26" fill="#F0B61F"/>
<rect x="529" y="50" width="2" height="26" fill="#F0B61F"/>
<rect x="532" y="50" width="2" height="26" fill="#F0B61F"/>
<rect x="535" y="50" width="2" height="26" fill="#F0B61F"/>
<rect x="538" y="50" width="2" height="26" fill="#F0B61F"/>
<rect x="541" y="50" width="2" height="26" fill="#F0B61F"/>
<rect x="544" y="50" width="2" height="26" fill="#F0B61F"/>
<rect x="547" y="50" width="2" height="26" fill="#F0B61F"/>
<rect x="550" y="50" width="2" height="26" fill="#F0B61F"/>
<rect x="553" y="50" width="2" height="26" fill="#F0B61F"/>
<rect x="556" y="50" width="2" height="26" fill="#F0B61F"/>
<rect x="559" y="50" width="2" height="26" fill="#F0B61F"/>
<rect x="562" y="50" width="2" height="26" fill="#F0B61F"/>
<rect x="565" y="50" width="2" height="26" fill="#F0B61F"/>
<rect x="568" y="50" width="2" height="26" fill="#F0B61F"/>
<rect x="571" y="50" width="2" height="26" fill="#F0B61F"/>
<rect x="574" y="50" width="2" height="26" fill="#F0B61F"/>
<rect x="577" y="50" width="2" height="26" fill="#F0B61F"/>
<rect x="580" y="50" width="2" height="26" fill="#F0B61F"/>
<rect x="583" y="50" width="2" height="26" fill="#F0B61F"/>
<rect x="586" y="50" width="2" height="26" fill="#F0B61F"/>
<rect x="589" y="50" width="2" height="26" fill="#F0B61F"/>
<rect x="592" y="50" width="2" height="26" fill="#F0B61F"/>
<rect x="595" y="50" width="2" height="26" fill="#F0B61F"/>
<rect x="598" y="50" width="2" height="26" fill="#F0B61F"/>
<rect x="601" y="50" width="2" height="26" fill="#F0B61F"/>
<rect x="604" y="50" width="2" height="26" fill="#F0B61F"/>
<rect x="607" y="50" width="2" height="26" fill="#F0B61F"/>
<rect x="610" y="50" width="2" height="26" fill="#F0B61F"/>
<rect x="613" y="50" width="2" height="26" fill="#F0B61F"/>
<rect x="616" y="50" width="2" height="26" fill="#F0B61F"/>
<rect x="619" y="50" width="2" height="26" fill="#F0B61F"/>
<rect x="622" y="50" width="2" height="26" fill="#F0B61F"/>
<rect x="625" y="50" width="2" height="26" fill="#F0B61F"/>
<rect x="628" y="50" width="2" height="26" fill="#F0B61F"/>
<rect x="631" y="50" width="2" height="26" fill="#F0B61F"/>
<rect x="634" y="50" width="2" height="26" fill="#F0B61F"/>
<rect x="637" y="50" width="2" height="26" fill="#F0B61F"/>
<rect x="640" y="50" width="2" height="26" fill="#F0B61F"/>
<rect x="643" y="50" width="2" height="26" fill="#F0B61F"/>
<rect x="646" y="50" width="2" height="26" fill="#F0B61F"/>
<rect x="649" y="50" width="2" height="26" fill="#F0B61F"/>
<rect x="652" y="50" width="2" height="26" fill="#F0B61F"/>
<rect x="655" y="50" width="2" height="26" fill="#F0B61F"/>
<rect x="658" y="50" width="2" height="26" fill="#F0B61F"/>
<rect x="661" y="50" width="2" height="26" fill="#F0B61F"/>
<rect x="664" y="50" width="2" height="26" fill="#F0B61F"/>
<rect x="667" y="50" width="2" height="26" fill="#F0B61F"/>
<rect x="670" y="50" width="2" height="26" fill="#F0B61F"/>
<rect x="673" y="50" width="2" height="26" fill="#F0B61F"/>
<rect x="676" y="50" width="2" height="26" fill="#F0B61F"/>
<rect x="679" y="50" width="2" height="26" fill="#F0B61F"/>
<rect x="682" y="50" width="2" height="26" fill="#F0B61F"/>
<rect x="685" y="50" width="2" height="26" fill="#F0B61F"/>
<rect x="688" y="50" width="2" height="26" fill="#F0B61F"/>
<rect x="691" y="50" width="2" height="26" fill="#F0B61F"/>
<rect x="694" y="50" width="2" height="26" fill="#F0B61F"/>
<rect x="697" y="50" width="2" height="26" fill="#F0B61F"/>
<rect x="700" y="50" width="2" height="26" fill="#F0B61F"/>
<rect x="703" y="50" width="2" height="26" fill="#F0B61F"/>
<rect x="706" y="50" width="2" height="26" fill="#F0B61F"/>
<rect x="709" y="50" width="2" height="26" fill="#F0B61F"/>
<rect x="712" y="50" width="2" height="26" fill="#F0B61F"/>
<rect x="715" y="50" width="2" height="26" fill="#F0B61F"/>
<rect x="718" y="50" width="2" height="26" fill="#F0B61F"/>
<rect x="721" y="50" width="2" height="26" fill="#F0B61F"/>
<rect x="724" y="50" width="2" height="26" fill="#F0B61F"/>
<rect x="727" y="50" width="2" height="26" fill="#F0B61F"/>
<rect x="730" y="50" width="2" height="26" fill="#F0B61F"/>
<rect x="733" y="50" width="2" height="26" fill="#F0B61F"/>
<rect x="736" y="50" width="2" height="26" fill="#F0B61F"/>
<rect x="739" y="50" width="2" height="26" fill="#F0B61F"/>
<rect x="742" y="50" width="2" height="26" fill="#F0B61F"/>
<rect x="745" y="50" width="2" height="26" fill="#F0B61F"/>
<rect x="748" y="50" width="2" height="26" fill="#F00909"/>
<rect x="751" y="50" width="2" height="26" fill="#F00909"/>
<rect x="754" y="50" width="2" height="26" fill="#F00909"/>
<rect x="757" y="50" width="2" height="26" fill="#F00909"/>
<path d="M33.5596 93H32.6514V86.9795L30.8301 87.6484V86.8281L33.418 85.8564H33.5596V93ZM40.8643 93H36.2061V92.3506L38.667 89.6162C39.0316 89.2028 39.2822 88.8675 39.4189 88.6104C39.5589 88.3499 39.6289 88.0814 39.6289 87.8047C39.6289 87.4336 39.5166 87.1292 39.292 86.8916C39.0674 86.654 38.7679 86.5352 38.3936 86.5352C37.9443 86.5352 37.5944 86.6637 37.3438 86.9209C37.0964 87.1748 36.9727 87.5296 36.9727 87.9854H36.0693C36.0693 87.3311 36.2793 86.8021 36.6992 86.3984C37.1224 85.9948 37.6872 85.793 38.3936 85.793C39.0544 85.793 39.5768 85.9671 39.9609 86.3154C40.3451 86.6605 40.5371 87.1211 40.5371 87.6973C40.5371 88.3971 40.0911 89.2305 39.1992 90.1973L37.2949 92.2627H40.8643V93ZM41.7432 87.2578C41.7432 86.8314 41.8783 86.4798 42.1484 86.2031C42.4219 85.9264 42.7718 85.7881 43.1982 85.7881C43.6312 85.7881 43.9811 85.9281 44.248 86.208C44.5182 86.4847 44.6533 86.8444 44.6533 87.2871V87.6338C44.6533 88.0635 44.5166 88.415 44.2432 88.6885C43.973 88.9587 43.6279 89.0938 43.208 89.0938C42.7848 89.0938 42.4349 88.9587 42.1582 88.6885C41.8815 88.415 41.7432 88.0521 41.7432 87.5996V87.2578ZM42.417 87.6338C42.417 87.8877 42.4886 88.0977 42.6318 88.2637C42.7751 88.4264 42.9671 88.5078 43.208 88.5078C43.4391 88.5078 43.6247 88.4281 43.7646 88.2686C43.9079 88.109 43.9795 87.891 43.9795 87.6143V87.2578C43.9795 87.0039 43.9095 86.7939 43.7695 86.6279C43.6296 86.4619 43.4391 86.3789 43.1982 86.3789C42.9574 86.3789 42.7669 86.4619 42.627 86.6279C42.487 86.7939 42.417 87.0104 42.417 87.2773V87.6338ZM45.2051 91.2568C45.2051 90.8304 45.3402 90.4805 45.6104 90.207C45.8838 89.9303 46.2337 89.792 46.6602 89.792C47.0866 89.792 47.4365 89.9287 47.71 90.2021C47.9834 90.4756 48.1201 90.8385 48.1201 91.291V91.6377C48.1201 92.0641 47.9834 92.4157 47.71 92.6924C47.4398 92.9658 47.0931 93.1025 46.6699 93.1025C46.2467 93.1025 45.8968 92.9674 45.6201 92.6973C45.3434 92.4238 45.2051 92.0609 45.2051 91.6084V91.2568ZM45.8789 91.6377C45.8789 91.8949 45.9505 92.1064 46.0938 92.2725C46.237 92.4352 46.429 92.5166 46.6699 92.5166C46.9043 92.5166 47.0915 92.4368 47.2314 92.2773C47.3714 92.1146 47.4414 91.8949 47.4414 91.6182V91.2568C47.4414 90.9997 47.3698 90.7897 47.2266 90.627C47.0866 90.4642 46.8978 90.3828 46.6602 90.3828C46.429 90.3828 46.2402 90.4642 46.0938 90.627C45.9505 90.7865 45.8789 91.0029 45.8789 91.2764V91.6377ZM43.4131 92.4629L42.9004 92.1406L46.3721 86.584L46.8848 86.9062L43.4131 92.4629Z" fill="#646464"/>
<path d="M120.249 92H115.591V91.3506L118.052 88.6162C118.416 88.2028 118.667 87.8675 118.804 87.6104C118.944 87.3499 119.014 87.0814 119.014 86.8047C119.014 86.4336 118.901 86.1292 118.677 85.8916C118.452 85.654 118.153 85.5352 117.778 85.5352C117.329 85.5352 116.979 85.6637 116.729 85.9209C116.481 86.1748 116.357 86.5296 116.357 86.9854H115.454C115.454 86.3311 115.664 85.8021 116.084 85.3984C116.507 84.9948 117.072 84.793 117.778 84.793C118.439 84.793 118.962 84.9671 119.346 85.3154C119.73 85.6605 119.922 86.1211 119.922 86.6973C119.922 87.3971 119.476 88.2305 118.584 89.1973L116.68 91.2627H120.249V92ZM121.621 88.4355L121.982 84.8906H125.625V85.7256H122.749L122.534 87.6641C122.882 87.459 123.278 87.3564 123.721 87.3564C124.368 87.3564 124.883 87.5713 125.264 88.001C125.645 88.4274 125.835 89.0052 125.835 89.7344C125.835 90.4668 125.636 91.0446 125.239 91.4678C124.845 91.8877 124.294 92.0977 123.584 92.0977C122.956 92.0977 122.443 91.9235 122.046 91.5752C121.649 91.2269 121.423 90.7451 121.367 90.1299H122.222C122.277 90.5368 122.422 90.8444 122.656 91.0527C122.891 91.2578 123.2 91.3604 123.584 91.3604C124.004 91.3604 124.333 91.2171 124.57 90.9307C124.811 90.6442 124.932 90.2487 124.932 89.7441C124.932 89.2689 124.801 88.888 124.541 88.6016C124.284 88.3118 123.94 88.167 123.511 88.167C123.117 88.167 122.808 88.2533 122.583 88.4258L122.344 88.6211L121.621 88.4355ZM126.743 86.2578C126.743 85.8314 126.878 85.4798 127.148 85.2031C127.422 84.9264 127.772 84.7881 128.198 84.7881C128.631 84.7881 128.981 84.9281 129.248 85.208C129.518 85.4847 129.653 85.8444 129.653 86.2871V86.6338C129.653 87.0635 129.517 87.415 129.243 87.6885C128.973 87.9587 128.628 88.0938 128.208 88.0938C127.785 88.0938 127.435 87.9587 127.158 87.6885C126.882 87.415 126.743 87.0521 126.743 86.5996V86.2578ZM127.417 86.6338C127.417 86.8877 127.489 87.0977 127.632 87.2637C127.775 87.4264 127.967 87.5078 128.208 87.5078C128.439 87.5078 128.625 87.4281 128.765 87.2686C128.908 87.109 128.979 86.891 128.979 86.6143V86.2578C128.979 86.0039 128.91 85.7939 128.77 85.6279C128.63 85.4619 128.439 85.3789 128.198 85.3789C127.957 85.3789 127.767 85.4619 127.627 85.6279C127.487 85.7939 127.417 86.0104 127.417 86.2773V86.6338ZM130.205 90.2568C130.205 89.8304 130.34 89.4805 130.61 89.207C130.884 88.9303 131.234 88.792 131.66 88.792C132.087 88.792 132.437 88.9287 132.71 89.2021C132.983 89.4756 133.12 89.8385 133.12 90.291V90.6377C133.12 91.0641 132.983 91.4157 132.71 91.6924C132.44 91.9658 132.093 92.1025 131.67 92.1025C131.247 92.1025 130.897 91.9674 130.62 91.6973C130.343 91.4238 130.205 91.0609 130.205 90.6084V90.2568ZM130.879 90.6377C130.879 90.8949 130.951 91.1064 131.094 91.2725C131.237 91.4352 131.429 91.5166 131.67 91.5166C131.904 91.5166 132.091 91.4368 132.231 91.2773C132.371 91.1146 132.441 90.8949 132.441 90.6182V90.2568C132.441 89.9997 132.37 89.7897 132.227 89.627C132.087 89.4642 131.898 89.3828 131.66 89.3828C131.429 89.3828 131.24 89.4642 131.094 89.627C130.951 89.7865 130.879 90.0029 130.879 90.2764V90.6377ZM128.413 91.4629L127.9 91.1406L131.372 85.584L131.885 85.9062L128.413 91.4629Z" fill="#646464"/>
<path d="M306.249 89H301.591V88.3506L304.052 85.6162C304.416 85.2028 304.667 84.8675 304.804 84.6104C304.944 84.3499 305.014 84.0814 305.014 83.8047C305.014 83.4336 304.901 83.1292 304.677 82.8916C304.452 82.654 304.153 82.5352 303.778 82.5352C303.329 82.5352 302.979 82.6637 302.729 82.9209C302.481 83.1748 302.357 83.5296 302.357 83.9854H301.454C301.454 83.3311 301.664 82.8021 302.084 82.3984C302.507 81.9948 303.072 81.793 303.778 81.793C304.439 81.793 304.962 81.9671 305.346 82.3154C305.73 82.6605 305.922 83.1211 305.922 83.6973C305.922 84.3971 305.476 85.2305 304.584 86.1973L302.68 88.2627H306.249V89ZM311.864 89H307.206V88.3506L309.667 85.6162C310.032 85.2028 310.282 84.8675 310.419 84.6104C310.559 84.3499 310.629 84.0814 310.629 83.8047C310.629 83.4336 310.517 83.1292 310.292 82.8916C310.067 82.654 309.768 82.5352 309.394 82.5352C308.944 82.5352 308.594 82.6637 308.344 82.9209C308.096 83.1748 307.973 83.5296 307.973 83.9854H307.069C307.069 83.3311 307.279 82.8021 307.699 82.3984C308.122 81.9948 308.687 81.793 309.394 81.793C310.054 81.793 310.577 81.9671 310.961 82.3154C311.345 82.6605 311.537 83.1211 311.537 83.6973C311.537 84.3971 311.091 85.2305 310.199 86.1973L308.295 88.2627H311.864V89ZM312.743 83.2578C312.743 82.8314 312.878 82.4798 313.148 82.2031C313.422 81.9264 313.772 81.7881 314.198 81.7881C314.631 81.7881 314.981 81.9281 315.248 82.208C315.518 82.4847 315.653 82.8444 315.653 83.2871V83.6338C315.653 84.0635 315.517 84.415 315.243 84.6885C314.973 84.9587 314.628 85.0938 314.208 85.0938C313.785 85.0938 313.435 84.9587 313.158 84.6885C312.882 84.415 312.743 84.0521 312.743 83.5996V83.2578ZM313.417 83.6338C313.417 83.8877 313.489 84.0977 313.632 84.2637C313.775 84.4264 313.967 84.5078 314.208 84.5078C314.439 84.5078 314.625 84.4281 314.765 84.2686C314.908 84.109 314.979 83.891 314.979 83.6143V83.2578C314.979 83.0039 314.91 82.7939 314.77 82.6279C314.63 82.4619 314.439 82.3789 314.198 82.3789C313.957 82.3789 313.767 82.4619 313.627 82.6279C313.487 82.7939 313.417 83.0104 313.417 83.2773V83.6338ZM316.205 87.2568C316.205 86.8304 316.34 86.4805 316.61 86.207C316.884 85.9303 317.234 85.792 317.66 85.792C318.087 85.792 318.437 85.9287 318.71 86.2021C318.983 86.4756 319.12 86.8385 319.12 87.291V87.6377C319.12 88.0641 318.983 88.4157 318.71 88.6924C318.44 88.9658 318.093 89.1025 317.67 89.1025C317.247 89.1025 316.897 88.9674 316.62 88.6973C316.343 88.4238 316.205 88.0609 316.205 87.6084V87.2568ZM316.879 87.6377C316.879 87.8949 316.951 88.1064 317.094 88.2725C317.237 88.4352 317.429 88.5166 317.67 88.5166C317.904 88.5166 318.091 88.4368 318.231 88.2773C318.371 88.1146 318.441 87.8949 318.441 87.6182V87.2568C318.441 86.9997 318.37 86.7897 318.227 86.627C318.087 86.4642 317.898 86.3828 317.66 86.3828C317.429 86.3828 317.24 86.4642 317.094 86.627C316.951 86.7865 316.879 87.0029 316.879 87.2764V87.6377ZM314.413 88.4629L313.9 88.1406L317.372 82.584L317.885 82.9062L314.413 88.4629Z" fill="#646464"/>
<path d="M465.404 86.6123H466.391V87.3496H465.404V89H464.496V87.3496H461.259V86.8174L464.442 81.8906H465.404V86.6123ZM462.284 86.6123H464.496V83.126L464.389 83.3213L462.284 86.6123ZM471.664 85.9678C471.664 87.0257 471.483 87.8118 471.122 88.3262C470.761 88.8405 470.196 89.0977 469.428 89.0977C468.669 89.0977 468.108 88.847 467.743 88.3457C467.379 87.8411 467.19 87.0892 467.177 86.0898V84.8838C467.177 83.8389 467.357 83.0625 467.719 82.5547C468.08 82.0469 468.646 81.793 469.418 81.793C470.183 81.793 470.746 82.0387 471.107 82.5303C471.469 83.0186 471.654 83.7738 471.664 84.7959V85.9678ZM470.761 84.7324C470.761 83.9674 470.653 83.4108 470.438 83.0625C470.224 82.7109 469.883 82.5352 469.418 82.5352C468.956 82.5352 468.619 82.7093 468.407 83.0576C468.196 83.4059 468.087 83.9414 468.08 84.6641V86.1094C468.08 86.8776 468.191 87.4456 468.412 87.8135C468.637 88.1781 468.975 88.3604 469.428 88.3604C469.874 88.3604 470.204 88.1878 470.419 87.8428C470.637 87.4977 470.751 86.9541 470.761 86.2119V84.7324ZM472.743 83.2578C472.743 82.8314 472.878 82.4798 473.148 82.2031C473.422 81.9264 473.772 81.7881 474.198 81.7881C474.631 81.7881 474.981 81.9281 475.248 82.208C475.518 82.4847 475.653 82.8444 475.653 83.2871V83.6338C475.653 84.0635 475.517 84.415 475.243 84.6885C474.973 84.9587 474.628 85.0938 474.208 85.0938C473.785 85.0938 473.435 84.9587 473.158 84.6885C472.882 84.415 472.743 84.0521 472.743 83.5996V83.2578ZM473.417 83.6338C473.417 83.8877 473.489 84.0977 473.632 84.2637C473.775 84.4264 473.967 84.5078 474.208 84.5078C474.439 84.5078 474.625 84.4281 474.765 84.2686C474.908 84.109 474.979 83.891 474.979 83.6143V83.2578C474.979 83.0039 474.91 82.7939 474.77 82.6279C474.63 82.4619 474.439 82.3789 474.198 82.3789C473.957 82.3789 473.767 82.4619 473.627 82.6279C473.487 82.7939 473.417 83.0104 473.417 83.2773V83.6338ZM476.205 87.2568C476.205 86.8304 476.34 86.4805 476.61 86.207C476.884 85.9303 477.234 85.792 477.66 85.792C478.087 85.792 478.437 85.9287 478.71 86.2021C478.983 86.4756 479.12 86.8385 479.12 87.291V87.6377C479.12 88.0641 478.983 88.4157 478.71 88.6924C478.44 88.9658 478.093 89.1025 477.67 89.1025C477.247 89.1025 476.897 88.9674 476.62 88.6973C476.343 88.4238 476.205 88.0609 476.205 87.6084V87.2568ZM476.879 87.6377C476.879 87.8949 476.951 88.1064 477.094 88.2725C477.237 88.4352 477.429 88.5166 477.67 88.5166C477.904 88.5166 478.091 88.4368 478.231 88.2773C478.371 88.1146 478.441 87.8949 478.441 87.6182V87.2568C478.441 86.9997 478.37 86.7897 478.227 86.627C478.087 86.4642 477.898 86.3828 477.66 86.3828C477.429 86.3828 477.24 86.4642 477.094 86.627C476.951 86.7865 476.879 87.0029 476.879 87.2764V87.6377ZM474.413 88.4629L473.9 88.1406L477.372 82.584L477.885 82.9062L474.413 88.4629Z" fill="#646464"/>
</svg>
