<svg width="381" height="197" viewBox="0 0 381 197" fill="none" xmlns="http://www.w3.org/2000/svg">
<rect width="381" height="197" fill="white"/>
<rect x="64" y="30" width="2" height="26" fill="#3D9726"/>
<rect x="67" y="30" width="2" height="26" fill="#3D9726"/>
<rect x="70" y="30" width="2" height="26" fill="#3D9726"/>
<rect x="73" y="30" width="2" height="26" fill="#3D9726"/>
<rect x="76" y="30" width="2" height="26" fill="#3D9726"/>
<rect x="79" y="30" width="2" height="26" fill="#3D9726"/>
<rect x="82" y="30" width="2" height="26" fill="#3D9726"/>
<rect x="85" y="30" width="2" height="26" fill="#9CCA62"/>
<rect x="88" y="30" width="2" height="26" fill="#9CCA62"/>
<rect x="91" y="30" width="2" height="26" fill="#9CCA62"/>
<rect x="94" y="30" width="2" height="26" fill="#9CCA62"/>
<rect x="97" y="30" width="2" height="26" fill="#9CCA62"/>
<rect x="100" y="30" width="2" height="26" fill="#9CCA62"/>
<rect x="103" y="30" width="2" height="26" fill="#9CCA62"/>
<rect x="106" y="30" width="2" height="26" fill="#9CCA62"/>
<rect x="109" y="30" width="2" height="26" fill="#9CCA62"/>
<rect x="112" y="30" width="2" height="26" fill="#9CCA62"/>
<rect x="115" y="30" width="2" height="26" fill="#9CCA62"/>
<rect x="118" y="30" width="2" height="26" fill="#9CCA62"/>
<rect x="121" y="30" width="2" height="26" fill="#9CCA62"/>
<rect x="124" y="30" width="2" height="26" fill="#9CCA62"/>
<rect x="127" y="30" width="2" height="26" fill="#9CCA62"/>
<rect x="130" y="30" width="2" height="26" fill="#9CCA62"/>
<rect x="133" y="30" width="2" height="26" fill="#9CCA62"/>
<rect x="136" y="30" width="2" height="26" fill="#9CCA62"/>
<rect x="139" y="30" width="2" height="26" fill="#9CCA62"/>
<rect x="142" y="30" width="2" height="26" fill="#9CCA62"/>
<rect x="145" y="30" width="2" height="26" fill="#9CCA62"/>
<rect x="64" y="60" width="2" height="26" fill="#413CF0"/>
<rect x="67" y="60" width="2" height="26" fill="#413CF0"/>
<rect x="70" y="60" width="2" height="26" fill="#413CF0"/>
<rect x="73" y="60" width="2" height="26" fill="#413CF0"/>
<rect x="76" y="60" width="2" height="26" fill="#413CF0"/>
<rect x="79" y="60" width="2" height="26" fill="#413CF0"/>
<rect x="82" y="60" width="2" height="26" fill="#413CF0"/>
<rect x="85" y="60" width="2" height="26" fill="#413CF0"/>
<rect x="88" y="60" width="2" height="26" fill="#413CF0"/>
<rect x="91" y="60" width="2" height="26" fill="#413CF0"/>
<rect x="94" y="60" width="2" height="26" fill="#413CF0"/>
<rect x="97" y="60" width="2" height="26" fill="#413CF0"/>
<rect x="100" y="60" width="2" height="26" fill="#413CF0"/>
<rect x="103" y="60" width="2" height="26" fill="#413CF0"/>
<rect x="106" y="60" width="2" height="26" fill="#413CF0"/>
<rect x="109" y="60" width="2" height="26" fill="#413CF0"/>
<rect x="112" y="60" width="2" height="26" fill="#413CF0"/>
<rect x="115" y="60" width="2" height="26" fill="#413CF0"/>
<rect x="118" y="60" width="2" height="26" fill="#413CF0"/>
<rect x="121" y="60" width="2" height="26" fill="#413CF0"/>
<rect x="124" y="60" width="2" height="26" fill="#413CF0"/>
<rect x="127" y="60" width="2" height="26" fill="#413CF0"/>
<rect x="130" y="60" width="2" height="26" fill="#413CF0"/>
<rect x="133" y="60" width="2" height="26" fill="#413CF0"/>
<rect x="136" y="60" width="2" height="26" fill="#413CF0"/>
<rect x="139" y="60" width="2" height="26" fill="#413CF0"/>
<rect x="142" y="60" width="2" height="26" fill="#413CF0"/>
<rect x="145" y="60" width="2" height="26" fill="#413CF0"/>
<rect x="148" y="60" width="2" height="26" fill="#413CF0"/>
<rect x="151" y="60" width="2" height="26" fill="#413CF0"/>
<rect x="154" y="60" width="2" height="26" fill="#413CF0"/>
<rect x="157" y="60" width="2" height="26" fill="#413CF0"/>
<rect x="160" y="60" width="2" height="26" fill="#413CF0"/>
<rect x="163" y="60" width="2" height="26" fill="#413CF0"/>
<rect x="166" y="60" width="2" height="26" fill="#413CF0"/>
<rect x="169" y="60" width="2" height="26" fill="#413CF0"/>
<rect x="172" y="60" width="2" height="26" fill="#413CF0"/>
<rect x="175" y="60" width="2" height="26" fill="#413CF0"/>
<rect x="178" y="60" width="2" height="26" fill="#413CF0"/>
<rect x="181" y="60" width="2" height="26" fill="#413CF0"/>
<rect x="184" y="60" width="2" height="26" fill="#413CF0"/>
<rect x="187" y="60" width="2" height="26" fill="#413CF0"/>
<rect x="190" y="60" width="2" height="26" fill="#413CF0"/>
<rect x="193" y="60" width="2" height="26" fill="#413CF0"/>
<rect x="196" y="60" width="2" height="26" fill="#413CF0"/>
<rect x="199" y="60" width="2" height="26" fill="#413CF0"/>
<rect x="202" y="60" width="2" height="26" fill="#413CF0"/>
<rect x="205" y="60" width="2" height="26" fill="#413CF0"/>
<rect x="208" y="60" width="2" height="26" fill="#413CF0"/>
<rect x="211" y="60" width="2" height="26" fill="#413CF0"/>
<rect x="214" y="60" width="2" height="26" fill="#413CF0"/>
<rect x="217" y="60" width="2" height="26" fill="#413CF0"/>
<rect x="220" y="60" width="2" height="26" fill="#413CF0"/>
<rect x="223" y="60" width="2" height="26" fill="#413CF0"/>
<rect x="226" y="60" width="2" height="26" fill="#413CF0"/>
<rect x="229" y="60" width="2" height="26" fill="#413CF0"/>
<rect x="232" y="60" width="2" height="26" fill="#413CF0"/>
<rect x="235" y="60" width="2" height="26" fill="#413CF0"/>
<rect x="238" y="60" width="2" height="26" fill="#413CF0"/>
<rect x="241" y="60" width="2" height="26" fill="#413CF0"/>
<rect x="244" y="60" width="2" height="26" fill="#413CF0"/>
<rect x="247" y="60" width="2" height="26" fill="#413CF0"/>
<rect x="64" y="90" width="2" height="26" fill="#F0E22F"/>
<rect x="67" y="90" width="2" height="26" fill="#F0E22F"/>
<rect x="70" y="90" width="2" height="26" fill="#F0E22F"/>
<rect x="73" y="90" width="2" height="26" fill="#F0E22F"/>
<rect x="76" y="90" width="2" height="26" fill="#F0E22F"/>
<rect x="79" y="90" width="2" height="26" fill="#F0E22F"/>
<rect x="82" y="90" width="2" height="26" fill="#F0E22F"/>
<rect x="85" y="90" width="2" height="26" fill="#F0E22F"/>
<rect x="88" y="90" width="2" height="26" fill="#F0E22F"/>
<rect x="91" y="90" width="2" height="26" fill="#F0E22F"/>
<rect x="94" y="90" width="2" height="26" fill="#F0E22F"/>
<rect x="97" y="90" width="2" height="26" fill="#F0E22F"/>
<rect x="100" y="90" width="2" height="26" fill="#F0E22F"/>
<rect x="103" y="90" width="2" height="26" fill="#F0E22F"/>
<rect x="106" y="90" width="2" height="26" fill="#F0E22F"/>
<rect x="109" y="90" width="2" height="26" fill="#F0E22F"/>
<rect x="112" y="90" width="2" height="26" fill="#F0E22F"/>
<rect x="115" y="90" width="2" height="26" fill="#F0E22F"/>
<rect x="118" y="90" width="2" height="26" fill="#F0E22F"/>
<rect x="121" y="90" width="2" height="26" fill="#F0E22F"/>
<rect x="124" y="90" width="2" height="26" fill="#F0E22F"/>
<rect x="127" y="90" width="2" height="26" fill="#F0E22F"/>
<rect x="130" y="90" width="2" height="26" fill="#F0E22F"/>
<rect x="133" y="90" width="2" height="26" fill="#F0E22F"/>
<rect x="136" y="90" width="2" height="26" fill="#F0E22F"/>
<rect x="139" y="90" width="2" height="26" fill="#F0E22F"/>
<rect x="142" y="90" width="2" height="26" fill="#F0E22F"/>
<rect x="145" y="90" width="2" height="26" fill="#F0E22F"/>
<rect x="148" y="90" width="2" height="26" fill="#F0E22F"/>
<rect x="151" y="90" width="2" height="26" fill="#F0E22F"/>
<rect x="154" y="90" width="2" height="26" fill="#F0E22F"/>
<rect x="157" y="90" width="2" height="26" fill="#F0E22F"/>
<rect x="160" y="90" width="2" height="26" fill="#F0E22F"/>
<rect x="163" y="90" width="2" height="26" fill="#F0E22F"/>
<rect x="166" y="90" width="2" height="26" fill="#F0E22F"/>
<rect x="169" y="90" width="2" height="26" fill="#F0E22F"/>
<rect x="172" y="90" width="2" height="26" fill="#F0E22F"/>
<rect x="175" y="90" width="2" height="26" fill="#F0E22F"/>
<rect x="178" y="90" width="2" height="26" fill="#F0E22F"/>
<rect x="181" y="90" width="2" height="26" fill="#F0E22F"/>
<rect x="184" y="90" width="2" height="26" fill="#F0E22F"/>
<rect x="187" y="90" width="2" height="26" fill="#F0E22F"/>
<rect x="190" y="90" width="2" height="26" fill="#F0E22F"/>
<rect x="193" y="90" width="2" height="26" fill="#F0E22F"/>
<rect x="196" y="90" width="2" height="26" fill="#F0E22F"/>
<rect x="199" y="90" width="2" height="26" fill="#F0E22F"/>
<rect x="202" y="90" width="2" height="26" fill="#F0E22F"/>
<rect x="205" y="90" width="2" height="26" fill="#F0E22F"/>
<rect x="208" y="90" width="2" height="26" fill="#F0E22F"/>
<rect x="211" y="90" width="2" height="26" fill="#F0E22F"/>
<rect x="214" y="90" width="2" height="26" fill="#F0E22F"/>
<rect x="217" y="90" width="2" height="26" fill="#F0E22F"/>
<rect x="64" y="120" width="2" height="26" fill="#F0B61F"/>
<rect x="67" y="120" width="2" height="26" fill="#F0B61F"/>
<rect x="70" y="120" width="2" height="26" fill="#F0B61F"/>
<rect x="73" y="120" width="2" height="26" fill="#F0B61F"/>
<rect x="76" y="120" width="2" height="26" fill="#F0B61F"/>
<rect x="79" y="120" width="2" height="26" fill="#F0B61F"/>
<rect x="82" y="120" width="2" height="26" fill="#F0B61F"/>
<rect x="85" y="120" width="2" height="26" fill="#F0B61F"/>
<rect x="88" y="120" width="2" height="26" fill="#F0B61F"/>
<rect x="91" y="120" width="2" height="26" fill="#F0B61F"/>
<rect x="94" y="120" width="2" height="26" fill="#F0B61F"/>
<rect x="97" y="120" width="2" height="26" fill="#F0B61F"/>
<rect x="100" y="120" width="2" height="26" fill="#F0B61F"/>
<rect x="103" y="120" width="2" height="26" fill="#F0B61F"/>
<rect x="106" y="120" width="2" height="26" fill="#F0B61F"/>
<rect x="109" y="120" width="2" height="26" fill="#F0B61F"/>
<rect x="112" y="120" width="2" height="26" fill="#F0B61F"/>
<rect x="115" y="120" width="2" height="26" fill="#F0B61F"/>
<rect x="118" y="120" width="2" height="26" fill="#F0B61F"/>
<rect x="121" y="120" width="2" height="26" fill="#F0B61F"/>
<rect x="124" y="120" width="2" height="26" fill="#F0B61F"/>
<rect x="127" y="120" width="2" height="26" fill="#F0B61F"/>
<rect x="130" y="120" width="2" height="26" fill="#F0B61F"/>
<rect x="133" y="120" width="2" height="26" fill="#F0B61F"/>
<rect x="136" y="120" width="2" height="26" fill="#F0B61F"/>
<rect x="139" y="120" width="2" height="26" fill="#F0B61F"/>
<rect x="142" y="120" width="2" height="26" fill="#F0B61F"/>
<rect x="145" y="120" width="2" height="26" fill="#F0B61F"/>
<rect x="148" y="120" width="2" height="26" fill="#F0B61F"/>
<rect x="151" y="120" width="2" height="26" fill="#F0B61F"/>
<rect x="154" y="120" width="2" height="26" fill="#F0B61F"/>
<rect x="157" y="120" width="2" height="26" fill="#F0B61F"/>
<rect x="160" y="120" width="2" height="26" fill="#F0B61F"/>
<rect x="163" y="120" width="2" height="26" fill="#F0B61F"/>
<rect x="166" y="120" width="2" height="26" fill="#F0B61F"/>
<rect x="169" y="120" width="2" height="26" fill="#F0B61F"/>
<rect x="172" y="120" width="2" height="26" fill="#F0B61F"/>
<rect x="175" y="120" width="2" height="26" fill="#F0B61F"/>
<rect x="178" y="120" width="2" height="26" fill="#F0B61F"/>
<rect x="181" y="120" width="2" height="26" fill="#F0B61F"/>
<rect x="184" y="120" width="2" height="26" fill="#F0B61F"/>
<rect x="187" y="120" width="2" height="26" fill="#F0B61F"/>
<rect x="190" y="120" width="2" height="26" fill="#F0B61F"/>
<rect x="193" y="120" width="2" height="26" fill="#F0B61F"/>
<rect x="196" y="120" width="2" height="26" fill="#F0B61F"/>
<rect x="199" y="120" width="2" height="26" fill="#F0B61F"/>
<rect x="202" y="120" width="2" height="26" fill="#F0B61F"/>
<rect x="205" y="120" width="2" height="26" fill="#F0B61F"/>
<rect x="208" y="120" width="2" height="26" fill="#F0B61F"/>
<rect x="211" y="120" width="2" height="26" fill="#F0B61F"/>
<rect x="214" y="120" width="2" height="26" fill="#F0B61F"/>
<rect x="217" y="120" width="2" height="26" fill="#F0B61F"/>
<rect x="220" y="120" width="2" height="26" fill="#F0B61F"/>
<rect x="223" y="120" width="2" height="26" fill="#F0B61F"/>
<rect x="226" y="120" width="2" height="26" fill="#F0B61F"/>
<rect x="229" y="120" width="2" height="26" fill="#F0B61F"/>
<rect x="232" y="120" width="2" height="26" fill="#F0B61F"/>
<rect x="235" y="120" width="2" height="26" fill="#F0B61F"/>
<rect x="238" y="120" width="2" height="26" fill="#F0B61F"/>
<rect x="241" y="120" width="2" height="26" fill="#F0B61F"/>
<rect x="244" y="120" width="2" height="26" fill="#F0B61F"/>
<rect x="247" y="120" width="2" height="26" fill="#F0B61F"/>
<rect x="250" y="120" width="2" height="26" fill="#F0B61F"/>
<rect x="253" y="120" width="2" height="26" fill="#F0B61F"/>
<rect x="256" y="120" width="2" height="26" fill="#F0B61F"/>
<rect x="259" y="120" width="2" height="26" fill="#F0B61F"/>
<rect x="262" y="120" width="2" height="26" fill="#F0B61F"/>
<rect x="265" y="120" width="2" height="26" fill="#F0B61F"/>
<rect x="268" y="120" width="2" height="26" fill="#F0B61F"/>
<rect x="271" y="120" width="2" height="26" fill="#F0B61F"/>
<rect x="274" y="120" width="2" height="26" fill="#F0B61F"/>
<rect x="277" y="120" width="2" height="26" fill="#F0B61F"/>
<rect x="280" y="120" width="2" height="26" fill="#F0B61F"/>
<rect x="283" y="120" width="2" height="26" fill="#F0B61F"/>
<rect x="286" y="120" width="2" height="26" fill="#F0B61F"/>
<rect x="289" y="120" width="2" height="26" fill="#F0B61F"/>
<rect x="292" y="120" width="2" height="26" fill="#F0B61F"/>
<rect x="295" y="120" width="2" height="26" fill="#F0B61F"/>
<rect x="298" y="120" width="2" height="26" fill="#F0B61F"/>
<rect x="301" y="120" width="2" height="26" fill="#F0B61F"/>
<rect x="304" y="120" width="2" height="26" fill="#F0B61F"/>
<rect x="307" y="120" width="2" height="26" fill="#F0B61F"/>
<rect x="310" y="120" width="2" height="26" fill="#F0B61F"/>
<rect x="313" y="120" width="2" height="26" fill="#F0B61F"/>
<rect x="316" y="120" width="2" height="26" fill="#F0B61F"/>
<rect x="319" y="120" width="2" height="26" fill="#F0B61F"/>
<rect x="322" y="120" width="2" height="26" fill="#F0B61F"/>
<rect x="325" y="120" width="2" height="26" fill="#F0B61F"/>
<rect x="328" y="120" width="2" height="26" fill="#F0B61F"/>
<rect x="331" y="120" width="2" height="26" fill="#F0B61F"/>
<rect x="334" y="120" width="2" height="26" fill="#F0B61F"/>
<rect x="337" y="120" width="2" height="26" fill="#F0B61F"/>
<rect x="340" y="120" width="2" height="26" fill="#F0B61F"/>
<rect x="343" y="120" width="2" height="26" fill="#F0B61F"/>
<rect x="346" y="120" width="2" height="26" fill="#F0B61F"/>
<rect x="349" y="120" width="2" height="26" fill="#F0B61F"/>
<rect x="352" y="120" width="2" height="26" fill="#F0B61F"/>
<rect x="64" y="150" width="2" height="26" fill="#F00909"/>
<rect x="67" y="150" width="2" height="26" fill="#F00909"/>
<rect x="70" y="150" width="2" height="26" fill="#F00909"/>
<rect x="73" y="150" width="2" height="26" fill="#F00909"/>
<path d="M32.8477 37H32.1211V32.1836L30.6641 32.7188V32.0625L32.7344 31.2852H32.8477V37ZM38.6914 37H34.9648V36.4805L36.9336 34.293C37.2253 33.9622 37.4258 33.694 37.5352 33.4883C37.6471 33.2799 37.7031 33.0651 37.7031 32.8438C37.7031 32.5469 37.6133 32.3034 37.4336 32.1133C37.2539 31.9232 37.0143 31.8281 36.7148 31.8281C36.3555 31.8281 36.0755 31.931 35.875 32.1367C35.6771 32.3398 35.5781 32.6237 35.5781 32.9883H34.8555C34.8555 32.4648 35.0234 32.0417 35.3594 31.7188C35.6979 31.3958 36.1497 31.2344 36.7148 31.2344C37.2435 31.2344 37.6615 31.3737 37.9688 31.6523C38.276 31.9284 38.4297 32.2969 38.4297 32.7578C38.4297 33.3177 38.0729 33.9844 37.3594 34.7578L35.8359 36.4102H38.6914V37ZM39.3945 32.4062C39.3945 32.0651 39.5026 31.7839 39.7188 31.5625C39.9375 31.3411 40.2174 31.2305 40.5586 31.2305C40.9049 31.2305 41.1849 31.3424 41.3984 31.5664C41.6146 31.7878 41.7227 32.0755 41.7227 32.4297V32.707C41.7227 33.0508 41.6133 33.332 41.3945 33.5508C41.1784 33.7669 40.9023 33.875 40.5664 33.875C40.2279 33.875 39.9479 33.7669 39.7266 33.5508C39.5052 33.332 39.3945 33.0417 39.3945 32.6797V32.4062ZM39.9336 32.707C39.9336 32.9102 39.9909 33.0781 40.1055 33.2109C40.2201 33.3411 40.3737 33.4062 40.5664 33.4062C40.7513 33.4062 40.8997 33.3424 41.0117 33.2148C41.1263 33.0872 41.1836 32.9128 41.1836 32.6914V32.4062C41.1836 32.2031 41.1276 32.0352 41.0156 31.9023C40.9036 31.7695 40.7513 31.7031 40.5586 31.7031C40.3659 31.7031 40.2135 31.7695 40.1016 31.9023C39.9896 32.0352 39.9336 32.2083 39.9336 32.4219V32.707ZM42.1641 35.6055C42.1641 35.2643 42.2721 34.9844 42.4883 34.7656C42.707 34.5443 42.987 34.4336 43.3281 34.4336C43.6693 34.4336 43.9492 34.543 44.168 34.7617C44.3867 34.9805 44.4961 35.2708 44.4961 35.6328V35.9102C44.4961 36.2513 44.3867 36.5326 44.168 36.7539C43.9518 36.9727 43.6745 37.082 43.3359 37.082C42.9974 37.082 42.7174 36.974 42.4961 36.7578C42.2747 36.5391 42.1641 36.2487 42.1641 35.8867V35.6055ZM42.7031 35.9102C42.7031 36.1159 42.7604 36.2852 42.875 36.418C42.9896 36.5482 43.1432 36.6133 43.3359 36.6133C43.5234 36.6133 43.6732 36.5495 43.7852 36.4219C43.8971 36.2917 43.9531 36.1159 43.9531 35.8945V35.6055C43.9531 35.3997 43.8958 35.2318 43.7812 35.1016C43.6693 34.9714 43.5182 34.9062 43.3281 34.9062C43.1432 34.9062 42.9922 34.9714 42.875 35.1016C42.7604 35.2292 42.7031 35.4023 42.7031 35.6211V35.9102ZM40.7305 36.5703L40.3203 36.3125L43.0977 31.8672L43.5078 32.125L40.7305 36.5703Z" fill="#646464"/>
<path d="M34.1992 67H30.4727V66.4805L32.4414 64.293C32.7331 63.9622 32.9336 63.694 33.043 63.4883C33.1549 63.2799 33.2109 63.0651 33.2109 62.8438C33.2109 62.5469 33.1211 62.3034 32.9414 62.1133C32.7617 61.9232 32.5221 61.8281 32.2227 61.8281C31.8633 61.8281 31.5833 61.931 31.3828 62.1367C31.1849 62.3398 31.0859 62.6237 31.0859 62.9883H30.3633C30.3633 62.4648 30.5312 62.0417 30.8672 61.7188C31.2057 61.3958 31.6576 61.2344 32.2227 61.2344C32.7513 61.2344 33.1693 61.3737 33.4766 61.6523C33.7839 61.9284 33.9375 62.2969 33.9375 62.7578C33.9375 63.3177 33.5807 63.9844 32.8672 64.7578L31.3438 66.4102H34.1992V67ZM35.2969 64.1484L35.5859 61.3125H38.5V61.9805H36.1992L36.0273 63.5312C36.306 63.3672 36.6224 63.2852 36.9766 63.2852C37.4948 63.2852 37.9062 63.457 38.2109 63.8008C38.5156 64.1419 38.668 64.6042 38.668 65.1875C38.668 65.7734 38.5091 66.2357 38.1914 66.5742C37.8763 66.9102 37.4349 67.0781 36.8672 67.0781C36.3646 67.0781 35.9544 66.9388 35.6367 66.6602C35.319 66.3815 35.138 65.9961 35.0938 65.5039H35.7773C35.8216 65.8294 35.9375 66.0755 36.125 66.2422C36.3125 66.4062 36.5599 66.4883 36.8672 66.4883C37.2031 66.4883 37.4661 66.3737 37.6562 66.1445C37.849 65.9154 37.9453 65.599 37.9453 65.1953C37.9453 64.8151 37.8411 64.5104 37.6328 64.2812C37.4271 64.0495 37.1523 63.9336 36.8086 63.9336C36.4935 63.9336 36.2461 64.0026 36.0664 64.1406L35.875 64.2969L35.2969 64.1484ZM39.3945 62.4062C39.3945 62.0651 39.5026 61.7839 39.7188 61.5625C39.9375 61.3411 40.2174 61.2305 40.5586 61.2305C40.9049 61.2305 41.1849 61.3424 41.3984 61.5664C41.6146 61.7878 41.7227 62.0755 41.7227 62.4297V62.707C41.7227 63.0508 41.6133 63.332 41.3945 63.5508C41.1784 63.7669 40.9023 63.875 40.5664 63.875C40.2279 63.875 39.9479 63.7669 39.7266 63.5508C39.5052 63.332 39.3945 63.0417 39.3945 62.6797V62.4062ZM39.9336 62.707C39.9336 62.9102 39.9909 63.0781 40.1055 63.2109C40.2201 63.3411 40.3737 63.4062 40.5664 63.4062C40.7513 63.4062 40.8997 63.3424 41.0117 63.2148C41.1263 63.0872 41.1836 62.9128 41.1836 62.6914V62.4062C41.1836 62.2031 41.1276 62.0352 41.0156 61.9023C40.9036 61.7695 40.7513 61.7031 40.5586 61.7031C40.3659 61.7031 40.2135 61.7695 40.1016 61.9023C39.9896 62.0352 39.9336 62.2083 39.9336 62.4219V62.707ZM42.1641 65.6055C42.1641 65.2643 42.2721 64.9844 42.4883 64.7656C42.707 64.5443 42.987 64.4336 43.3281 64.4336C43.6693 64.4336 43.9492 64.543 44.168 64.7617C44.3867 64.9805 44.4961 65.2708 44.4961 65.6328V65.9102C44.4961 66.2513 44.3867 66.5326 44.168 66.7539C43.9518 66.9727 43.6745 67.082 43.3359 67.082C42.9974 67.082 42.7174 66.974 42.4961 66.7578C42.2747 66.5391 42.1641 66.2487 42.1641 65.8867V65.6055ZM42.7031 65.9102C42.7031 66.1159 42.7604 66.2852 42.875 66.418C42.9896 66.5482 43.1432 66.6133 43.3359 66.6133C43.5234 66.6133 43.6732 66.5495 43.7852 66.4219C43.8971 66.2917 43.9531 66.1159 43.9531 65.8945V65.6055C43.9531 65.3997 43.8958 65.2318 43.7812 65.1016C43.6693 64.9714 43.5182 64.9062 43.3281 64.9062C43.1432 64.9062 42.9922 64.9714 42.875 65.1016C42.7604 65.2292 42.7031 65.4023 42.7031 65.6211V65.9102ZM40.7305 66.5703L40.3203 66.3125L43.0977 61.8672L43.5078 62.125L40.7305 66.5703Z" fill="#646464"/>
<path d="M34.1992 97H30.4727V96.4805L32.4414 94.293C32.7331 93.9622 32.9336 93.694 33.043 93.4883C33.1549 93.2799 33.2109 93.0651 33.2109 92.8438C33.2109 92.5469 33.1211 92.3034 32.9414 92.1133C32.7617 91.9232 32.5221 91.8281 32.2227 91.8281C31.8633 91.8281 31.5833 91.931 31.3828 92.1367C31.1849 92.3398 31.0859 92.6237 31.0859 92.9883H30.3633C30.3633 92.4648 30.5312 92.0417 30.8672 91.7188C31.2057 91.3958 31.6576 91.2344 32.2227 91.2344C32.7513 91.2344 33.1693 91.3737 33.4766 91.6523C33.7839 91.9284 33.9375 92.2969 33.9375 92.7578C33.9375 93.3177 33.5807 93.9844 32.8672 94.7578L31.3438 96.4102H34.1992V97ZM38.6914 97H34.9648V96.4805L36.9336 94.293C37.2253 93.9622 37.4258 93.694 37.5352 93.4883C37.6471 93.2799 37.7031 93.0651 37.7031 92.8438C37.7031 92.5469 37.6133 92.3034 37.4336 92.1133C37.2539 91.9232 37.0143 91.8281 36.7148 91.8281C36.3555 91.8281 36.0755 91.931 35.875 92.1367C35.6771 92.3398 35.5781 92.6237 35.5781 92.9883H34.8555C34.8555 92.4648 35.0234 92.0417 35.3594 91.7188C35.6979 91.3958 36.1497 91.2344 36.7148 91.2344C37.2435 91.2344 37.6615 91.3737 37.9688 91.6523C38.276 91.9284 38.4297 92.2969 38.4297 92.7578C38.4297 93.3177 38.0729 93.9844 37.3594 94.7578L35.8359 96.4102H38.6914V97ZM39.3945 92.4062C39.3945 92.0651 39.5026 91.7839 39.7188 91.5625C39.9375 91.3411 40.2174 91.2305 40.5586 91.2305C40.9049 91.2305 41.1849 91.3424 41.3984 91.5664C41.6146 91.7878 41.7227 92.0755 41.7227 92.4297V92.707C41.7227 93.0508 41.6133 93.332 41.3945 93.5508C41.1784 93.7669 40.9023 93.875 40.5664 93.875C40.2279 93.875 39.9479 93.7669 39.7266 93.5508C39.5052 93.332 39.3945 93.0417 39.3945 92.6797V92.4062ZM39.9336 92.707C39.9336 92.9102 39.9909 93.0781 40.1055 93.2109C40.2201 93.3411 40.3737 93.4062 40.5664 93.4062C40.7513 93.4062 40.8997 93.3424 41.0117 93.2148C41.1263 93.0872 41.1836 92.9128 41.1836 92.6914V92.4062C41.1836 92.2031 41.1276 92.0352 41.0156 91.9023C40.9036 91.7695 40.7513 91.7031 40.5586 91.7031C40.3659 91.7031 40.2135 91.7695 40.1016 91.9023C39.9896 92.0352 39.9336 92.2083 39.9336 92.4219V92.707ZM42.1641 95.6055C42.1641 95.2643 42.2721 94.9844 42.4883 94.7656C42.707 94.5443 42.987 94.4336 43.3281 94.4336C43.6693 94.4336 43.9492 94.543 44.168 94.7617C44.3867 94.9805 44.4961 95.2708 44.4961 95.6328V95.9102C44.4961 96.2513 44.3867 96.5326 44.168 96.7539C43.9518 96.9727 43.6745 97.082 43.3359 97.082C42.9974 97.082 42.7174 96.974 42.4961 96.7578C42.2747 96.5391 42.1641 96.2487 42.1641 95.8867V95.6055ZM42.7031 95.9102C42.7031 96.1159 42.7604 96.2852 42.875 96.418C42.9896 96.5482 43.1432 96.6133 43.3359 96.6133C43.5234 96.6133 43.6732 96.5495 43.7852 96.4219C43.8971 96.2917 43.9531 96.1159 43.9531 95.8945V95.6055C43.9531 95.3997 43.8958 95.2318 43.7812 95.1016C43.6693 94.9714 43.5182 94.9062 43.3281 94.9062C43.1432 94.9062 42.9922 94.9714 42.875 95.1016C42.7604 95.2292 42.7031 95.4023 42.7031 95.6211V95.9102ZM40.7305 96.5703L40.3203 96.3125L43.0977 91.8672L43.5078 92.125L40.7305 96.5703Z" fill="#646464"/>
<path d="M33.5234 125.09H34.3125V125.68H33.5234V127H32.7969V125.68H30.207V125.254L32.7539 121.312H33.5234V125.09ZM31.0273 125.09H32.7969V122.301L32.7109 122.457L31.0273 125.09ZM38.5312 124.574C38.5312 125.421 38.3867 126.049 38.0977 126.461C37.8086 126.872 37.3568 127.078 36.7422 127.078C36.1354 127.078 35.6862 126.878 35.3945 126.477C35.1029 126.073 34.9518 125.471 34.9414 124.672V123.707C34.9414 122.871 35.0859 122.25 35.375 121.844C35.6641 121.438 36.1172 121.234 36.7344 121.234C37.3464 121.234 37.7969 121.431 38.0859 121.824C38.375 122.215 38.5234 122.819 38.5312 123.637V124.574ZM37.8086 123.586C37.8086 122.974 37.7227 122.529 37.5508 122.25C37.3789 121.969 37.1068 121.828 36.7344 121.828C36.3646 121.828 36.0951 121.967 35.9258 122.246C35.7565 122.525 35.6693 122.953 35.6641 123.531V124.688C35.6641 125.302 35.7526 125.757 35.9297 126.051C36.1094 126.342 36.3802 126.488 36.7422 126.488C37.099 126.488 37.3633 126.35 37.5352 126.074C37.7096 125.798 37.8008 125.363 37.8086 124.77V123.586ZM39.3945 122.406C39.3945 122.065 39.5026 121.784 39.7188 121.562C39.9375 121.341 40.2174 121.23 40.5586 121.23C40.9049 121.23 41.1849 121.342 41.3984 121.566C41.6146 121.788 41.7227 122.076 41.7227 122.43V122.707C41.7227 123.051 41.6133 123.332 41.3945 123.551C41.1784 123.767 40.9023 123.875 40.5664 123.875C40.2279 123.875 39.9479 123.767 39.7266 123.551C39.5052 123.332 39.3945 123.042 39.3945 122.68V122.406ZM39.9336 122.707C39.9336 122.91 39.9909 123.078 40.1055 123.211C40.2201 123.341 40.3737 123.406 40.5664 123.406C40.7513 123.406 40.8997 123.342 41.0117 123.215C41.1263 123.087 41.1836 122.913 41.1836 122.691V122.406C41.1836 122.203 41.1276 122.035 41.0156 121.902C40.9036 121.77 40.7513 121.703 40.5586 121.703C40.3659 121.703 40.2135 121.77 40.1016 121.902C39.9896 122.035 39.9336 122.208 39.9336 122.422V122.707ZM42.1641 125.605C42.1641 125.264 42.2721 124.984 42.4883 124.766C42.707 124.544 42.987 124.434 43.3281 124.434C43.6693 124.434 43.9492 124.543 44.168 124.762C44.3867 124.98 44.4961 125.271 44.4961 125.633V125.91C44.4961 126.251 44.3867 126.533 44.168 126.754C43.9518 126.973 43.6745 127.082 43.3359 127.082C42.9974 127.082 42.7174 126.974 42.4961 126.758C42.2747 126.539 42.1641 126.249 42.1641 125.887V125.605ZM42.7031 125.91C42.7031 126.116 42.7604 126.285 42.875 126.418C42.9896 126.548 43.1432 126.613 43.3359 126.613C43.5234 126.613 43.6732 126.549 43.7852 126.422C43.8971 126.292 43.9531 126.116 43.9531 125.895V125.605C43.9531 125.4 43.8958 125.232 43.7812 125.102C43.6693 124.971 43.5182 124.906 43.3281 124.906C43.1432 124.906 42.9922 124.971 42.875 125.102C42.7604 125.229 42.7031 125.402 42.7031 125.621V125.91ZM40.7305 126.57L40.3203 126.312L43.0977 121.867L43.5078 122.125L40.7305 126.57Z" fill="#646464"/>
</svg>
