<svg width="748" height="339" viewBox="0 0 748 339" fill="none" xmlns="http://www.w3.org/2000/svg">
<rect width="748" height="339" fill="white"/>
<rect x="490" y="291" width="2" height="4" fill="#C4C4C4"/>
<rect x="493" y="291" width="2" height="4" fill="#C4C4C4"/>
<rect x="496" y="291" width="2" height="4" fill="#C4C4C4"/>
<rect x="499" y="291" width="2" height="4" fill="#C4C4C4"/>
<rect x="502" y="291" width="2" height="4" fill="#C4C4C4"/>
<rect x="505" y="291" width="2" height="4" fill="#C4C4C4"/>
<rect x="508" y="291" width="2" height="4" fill="#C4C4C4"/>
<rect x="511" y="291" width="2" height="4" fill="#C4C4C4"/>
<rect x="514" y="291" width="2" height="4" fill="#C4C4C4"/>
<rect x="517" y="291" width="2" height="4" fill="#C4C4C4"/>
<rect x="520" y="291" width="2" height="4" fill="#C4C4C4"/>
<rect x="523" y="291" width="2" height="4" fill="#C4C4C4"/>
<rect x="526" y="291" width="2" height="4" fill="#C4C4C4"/>
<rect x="529" y="291" width="2" height="4" fill="#C4C4C4"/>
<rect x="532" y="291" width="2" height="4" fill="#C4C4C4"/>
<rect x="535" y="291" width="2" height="4" fill="#C4C4C4"/>
<rect x="538" y="291" width="2" height="4" fill="#C4C4C4"/>
<rect x="541" y="291" width="2" height="4" fill="#C4C4C4"/>
<rect x="544" y="291" width="2" height="4" fill="#C4C4C4"/>
<rect x="547" y="291" width="2" height="4" fill="#C4C4C4"/>
<rect x="550" y="291" width="2" height="4" fill="#C4C4C4"/>
<rect x="553" y="291" width="2" height="4" fill="#C4C4C4"/>
<rect x="556" y="291" width="2" height="4" fill="#C4C4C4"/>
<rect x="559" y="291" width="2" height="4" fill="#C4C4C4"/>
<rect x="562" y="291" width="2" height="4" fill="#C4C4C4"/>
<rect x="565" y="291" width="2" height="4" fill="#C4C4C4"/>
<rect x="568" y="291" width="2" height="4" fill="#C4C4C4"/>
<rect x="571" y="291" width="2" height="4" fill="#C4C4C4"/>
<rect x="574" y="291" width="2" height="4" fill="#C4C4C4"/>
<rect x="577" y="291" width="2" height="4" fill="#C4C4C4"/>
<rect x="580" y="291" width="2" height="4" fill="#C4C4C4"/>
<rect x="583" y="291" width="2" height="4" fill="#C4C4C4"/>
<rect x="586" y="291" width="2" height="4" fill="#C4C4C4"/>
<rect x="589" y="291" width="2" height="4" fill="#C4C4C4"/>
<rect x="592" y="291" width="2" height="4" fill="#C4C4C4"/>
<rect x="595" y="291" width="2" height="4" fill="#C4C4C4"/>
<rect x="598" y="291" width="2" height="4" fill="#C4C4C4"/>
<rect x="601" y="291" width="2" height="4" fill="#C4C4C4"/>
<rect x="604" y="291" width="2" height="4" fill="#C4C4C4"/>
<rect x="607" y="291" width="2" height="4" fill="#C4C4C4"/>
<rect x="610" y="291" width="2" height="4" fill="#C4C4C4"/>
<rect x="613" y="291" width="2" height="4" fill="#C4C4C4"/>
<rect x="616" y="291" width="2" height="4" fill="#C4C4C4"/>
<rect x="619" y="291" width="2" height="4" fill="#C4C4C4"/>
<rect x="622" y="291" width="2" height="4" fill="#C4C4C4"/>
<rect x="625" y="291" width="2" height="4" fill="#C4C4C4"/>
<rect x="628" y="291" width="2" height="4" fill="#C4C4C4"/>
<rect x="631" y="291" width="2" height="4" fill="#C4C4C4"/>
<rect x="634" y="291" width="2" height="4" fill="#C4C4C4"/>
<rect x="637" y="291" width="2" height="4" fill="#C4C4C4"/>
<rect x="640" y="291" width="2" height="4" fill="#C4C4C4"/>
<rect x="643" y="291" width="2" height="4" fill="#C4C4C4"/>
<rect x="646" y="291" width="2" height="4" fill="#C4C4C4"/>
<rect x="649" y="291" width="2" height="4" fill="#C4C4C4"/>
<rect x="652" y="291" width="2" height="4" fill="#C4C4C4"/>
<rect x="655" y="291" width="2" height="4" fill="#C4C4C4"/>
<rect x="658" y="291" width="2" height="4" fill="#C4C4C4"/>
<rect x="661" y="291" width="2" height="4" fill="#C4C4C4"/>
<rect x="664" y="291" width="2" height="4" fill="#C4C4C4"/>
<rect x="667" y="291" width="2" height="4" fill="#C4C4C4"/>
<rect x="670" y="291" width="2" height="4" fill="#C4C4C4"/>
<rect x="673" y="291" width="2" height="4" fill="#C4C4C4"/>
<rect x="676" y="291" width="2" height="4" fill="#C4C4C4"/>
<rect x="679" y="291" width="2" height="4" fill="#C4C4C4"/>
<rect x="682" y="291" width="2" height="4" fill="#C4C4C4"/>
<rect x="685" y="291" width="2" height="4" fill="#C4C4C4"/>
<rect x="688" y="291" width="2" height="4" fill="#C4C4C4"/>
<rect x="691" y="291" width="2" height="4" fill="#C4C4C4"/>
<rect x="694" y="291" width="2" height="4" fill="#C4C4C4"/>
<rect x="697" y="291" width="2" height="4" fill="#C4C4C4"/>
<rect x="700" y="291" width="2" height="4" fill="#C4C4C4"/>
<rect x="703" y="291" width="2" height="4" fill="#C4C4C4"/>
<rect x="706" y="291" width="2" height="4" fill="#C4C4C4"/>
<rect x="709" y="291" width="2" height="4" fill="#C4C4C4"/>
<rect x="712" y="291" width="2" height="4" fill="#C4C4C4"/>
<rect x="715" y="291" width="2" height="4" fill="#C4C4C4"/>
<rect x="718" y="291" width="2" height="4" fill="#C4C4C4"/>
<rect x="721" y="291" width="2" height="4" fill="#C4C4C4"/>
<rect x="724" y="291" width="2" height="4" fill="#C4C4C4"/>
<rect x="727" y="291" width="2" height="4" fill="#C4C4C4"/>
<rect x="730" y="291" width="2" height="4" fill="#C4C4C4"/>
<rect x="733" y="291" width="2" height="4" fill="#C4C4C4"/>
<rect x="736" y="291" width="2" height="4" fill="#C4C4C4"/>
<rect x="10" y="10" width="243" height="243" rx="121.5" fill="#C4E2FF"/>
<rect x="12" y="12" width="239" height="239" rx="119.5" fill="#5191CC"/>
<rect x="61" y="61" width="142" height="142" rx="71" fill="#23277E"/>
<rect x="87" y="87" width="90" height="90" rx="45" fill="#708A4E"/>
<rect x="118" y="118" width="28" height="28" rx="14" fill="#80B867"/>
<rect x="128" y="128" width="8" height="8" rx="4" fill="#EEFF89"/>
<rect x="10" y="291" width="2" height="4" fill="#C4C4C4"/>
<rect x="13" y="291" width="2" height="4" fill="#C4C4C4"/>
<rect x="16" y="291" width="2" height="4" fill="#C4C4C4"/>
<rect x="19" y="291" width="2" height="4" fill="#C4C4C4"/>
<rect x="22" y="291" width="2" height="4" fill="#C4C4C4"/>
<rect x="25" y="291" width="2" height="4" fill="#C4C4C4"/>
<rect x="28" y="291" width="2" height="4" fill="#C4C4C4"/>
<rect x="31" y="291" width="2" height="4" fill="#C4C4C4"/>
<rect x="34" y="291" width="2" height="4" fill="#C4C4C4"/>
<rect x="37" y="291" width="2" height="4" fill="#C4C4C4"/>
<rect x="40" y="291" width="2" height="4" fill="#C4C4C4"/>
<rect x="43" y="291" width="2" height="4" fill="#C4C4C4"/>
<rect x="46" y="291" width="2" height="4" fill="#C4C4C4"/>
<rect x="49" y="291" width="2" height="4" fill="#C4C4C4"/>
<rect x="52" y="291" width="2" height="4" fill="#C4C4C4"/>
<rect x="55" y="291" width="2" height="4" fill="#C4C4C4"/>
<rect x="58" y="291" width="2" height="4" fill="#C4C4C4"/>
<rect x="61" y="291" width="2" height="4" fill="#C4C4C4"/>
<rect x="64" y="291" width="2" height="4" fill="#C4C4C4"/>
<rect x="67" y="291" width="2" height="4" fill="#C4C4C4"/>
<rect x="70" y="291" width="2" height="4" fill="#C4C4C4"/>
<rect x="73" y="291" width="2" height="4" fill="#C4C4C4"/>
<rect x="76" y="291" width="2" height="4" fill="#C4C4C4"/>
<rect x="79" y="291" width="2" height="4" fill="#C4C4C4"/>
<rect x="82" y="291" width="2" height="4" fill="#C4C4C4"/>
<rect x="85" y="291" width="2" height="4" fill="#C4C4C4"/>
<rect x="88" y="291" width="2" height="4" fill="#C4C4C4"/>
<rect x="91" y="291" width="2" height="4" fill="#C4C4C4"/>
<rect x="94" y="291" width="2" height="4" fill="#C4C4C4"/>
<rect x="97" y="291" width="2" height="4" fill="#C4C4C4"/>
<rect x="100" y="291" width="2" height="4" fill="#C4C4C4"/>
<rect x="103" y="291" width="2" height="4" fill="#C4C4C4"/>
<rect x="106" y="291" width="2" height="4" fill="#C4C4C4"/>
<rect x="109" y="291" width="2" height="4" fill="#C4C4C4"/>
<rect x="112" y="291" width="2" height="4" fill="#C4C4C4"/>
<rect x="115" y="291" width="2" height="4" fill="#C4C4C4"/>
<rect x="118" y="291" width="2" height="4" fill="#C4C4C4"/>
<rect x="121" y="291" width="2" height="4" fill="#C4C4C4"/>
<rect x="124" y="291" width="2" height="4" fill="#C4C4C4"/>
<rect x="127" y="291" width="2" height="4" fill="#C4C4C4"/>
<rect x="130" y="291" width="2" height="4" fill="#C4C4C4"/>
<rect x="133" y="291" width="2" height="4" fill="#C4C4C4"/>
<rect x="136" y="291" width="2" height="4" fill="#C4C4C4"/>
<rect x="139" y="291" width="2" height="4" fill="#C4C4C4"/>
<rect x="142" y="291" width="2" height="4" fill="#C4C4C4"/>
<rect x="145" y="291" width="2" height="4" fill="#C4C4C4"/>
<rect x="148" y="291" width="2" height="4" fill="#C4C4C4"/>
<rect x="151" y="291" width="2" height="4" fill="#C4C4C4"/>
<rect x="154" y="291" width="2" height="4" fill="#C4C4C4"/>
<rect x="157" y="291" width="2" height="4" fill="#C4C4C4"/>
<rect x="160" y="291" width="2" height="4" fill="#C4C4C4"/>
<rect x="163" y="291" width="2" height="4" fill="#C4C4C4"/>
<rect x="166" y="291" width="2" height="4" fill="#C4C4C4"/>
<rect x="169" y="291" width="2" height="4" fill="#C4C4C4"/>
<rect x="172" y="291" width="2" height="4" fill="#C4C4C4"/>
<rect x="175" y="291" width="2" height="4" fill="#C4C4C4"/>
<rect x="178" y="291" width="2" height="4" fill="#C4C4C4"/>
<rect x="181" y="291" width="2" height="4" fill="#C4C4C4"/>
<rect x="184" y="291" width="2" height="4" fill="#C4C4C4"/>
<rect x="187" y="291" width="2" height="4" fill="#C4C4C4"/>
<rect x="190" y="291" width="2" height="4" fill="#C4C4C4"/>
<rect x="193" y="291" width="2" height="4" fill="#C4C4C4"/>
<rect x="196" y="291" width="2" height="4" fill="#C4C4C4"/>
<rect x="199" y="291" width="2" height="4" fill="#C4C4C4"/>
<rect x="202" y="291" width="2" height="4" fill="#C4C4C4"/>
<rect x="205" y="291" width="2" height="4" fill="#C4C4C4"/>
<rect x="208" y="291" width="2" height="4" fill="#C4C4C4"/>
<rect x="211" y="291" width="2" height="4" fill="#C4C4C4"/>
<rect x="214" y="291" width="2" height="4" fill="#C4C4C4"/>
<rect x="217" y="291" width="2" height="4" fill="#C4C4C4"/>
<rect x="220" y="291" width="2" height="4" fill="#C4C4C4"/>
<rect x="223" y="291" width="2" height="4" fill="#C4C4C4"/>
<rect x="226" y="291" width="2" height="4" fill="#C4C4C4"/>
<rect x="229" y="291" width="2" height="4" fill="#C4C4C4"/>
<rect x="232" y="291" width="2" height="4" fill="#C4C4C4"/>
<rect x="235" y="291" width="2" height="4" fill="#C4C4C4"/>
<rect x="238" y="291" width="2" height="4" fill="#C4C4C4"/>
<rect x="241" y="291" width="2" height="4" fill="#C4C4C4"/>
<rect x="244" y="291" width="2" height="4" fill="#C4C4C4"/>
<rect x="247" y="291" width="2" height="4" fill="#C4C4C4"/>
<rect x="250" y="291" width="2" height="4" fill="#C4C4C4"/>
<rect x="253" y="291" width="2" height="4" fill="#C4C4C4"/>
<rect x="256" y="291" width="2" height="4" fill="#C4C4C4"/>
<rect x="259" y="291" width="2" height="4" fill="#C4C4C4"/>
<rect x="262" y="291" width="2" height="4" fill="#C4C4C4"/>
<rect x="265" y="291" width="2" height="4" fill="#C4C4C4"/>
<rect x="268" y="291" width="2" height="4" fill="#C4C4C4"/>
<rect x="271" y="291" width="2" height="4" fill="#C4C4C4"/>
<rect x="274" y="291" width="2" height="4" fill="#C4C4C4"/>
<rect x="277" y="291" width="2" height="4" fill="#C4C4C4"/>
<rect x="280" y="291" width="2" height="4" fill="#C4C4C4"/>
<rect x="283" y="291" width="2" height="4" fill="#C4C4C4"/>
<rect x="286" y="291" width="2" height="4" fill="#C4C4C4"/>
<rect x="289" y="291" width="2" height="4" fill="#C4C4C4"/>
<rect x="292" y="291" width="2" height="4" fill="#C4C4C4"/>
<rect x="295" y="291" width="2" height="4" fill="#C4C4C4"/>
<rect x="298" y="291" width="2" height="4" fill="#C4C4C4"/>
<rect x="301" y="291" width="2" height="4" fill="#C4C4C4"/>
<rect x="304" y="291" width="2" height="4" fill="#C4C4C4"/>
<rect x="307" y="291" width="2" height="4" fill="#C4C4C4"/>
<rect x="310" y="291" width="2" height="4" fill="#C4C4C4"/>
<rect x="313" y="291" width="2" height="4" fill="#C4C4C4"/>
<rect x="316" y="291" width="2" height="4" fill="#C4C4C4"/>
<rect x="319" y="291" width="2" height="4" fill="#C4C4C4"/>
<rect x="322" y="291" width="2" height="4" fill="#C4C4C4"/>
<rect x="325" y="291" width="2" height="4" fill="#C4C4C4"/>
<rect x="328" y="291" width="2" height="4" fill="#C4C4C4"/>
<rect x="331" y="291" width="2" height="4" fill="#C4C4C4"/>
<rect x="334" y="291" width="2" height="4" fill="#C4C4C4"/>
<rect x="337" y="291" width="2" height="4" fill="#C4C4C4"/>
<rect x="340" y="291" width="2" height="4" fill="#C4C4C4"/>
<rect x="343" y="291" width="2" height="4" fill="#C4C4C4"/>
<rect x="346" y="291" width="2" height="4" fill="#C4C4C4"/>
<rect x="349" y="291" width="2" height="4" fill="#C4C4C4"/>
<rect x="352" y="291" width="2" height="4" fill="#C4C4C4"/>
<rect x="355" y="291" width="2" height="4" fill="#C4C4C4"/>
<rect x="358" y="291" width="2" height="4" fill="#C4C4C4"/>
<rect x="361" y="291" width="2" height="4" fill="#C4C4C4"/>
<rect x="364" y="291" width="2" height="4" fill="#C4C4C4"/>
<rect x="367" y="291" width="2" height="4" fill="#C4C4C4"/>
<rect x="370" y="291" width="2" height="4" fill="#C4C4C4"/>
<rect x="373" y="291" width="2" height="4" fill="#C4C4C4"/>
<rect x="376" y="291" width="2" height="4" fill="#C4C4C4"/>
<rect x="379" y="291" width="2" height="4" fill="#C4C4C4"/>
<rect x="382" y="291" width="2" height="4" fill="#C4C4C4"/>
<rect x="385" y="291" width="2" height="4" fill="#C4C4C4"/>
<rect x="388" y="291" width="2" height="4" fill="#C4C4C4"/>
<rect x="391" y="291" width="2" height="4" fill="#C4C4C4"/>
<rect x="394" y="291" width="2" height="4" fill="#C4C4C4"/>
<rect x="397" y="291" width="2" height="4" fill="#C4C4C4"/>
<rect x="400" y="291" width="2" height="4" fill="#C4C4C4"/>
<rect x="403" y="291" width="2" height="4" fill="#C4C4C4"/>
<rect x="406" y="291" width="2" height="4" fill="#C4C4C4"/>
<rect x="409" y="291" width="2" height="4" fill="#C4C4C4"/>
<rect x="412" y="291" width="2" height="4" fill="#C4C4C4"/>
<rect x="415" y="291" width="2" height="4" fill="#C4C4C4"/>
<rect x="418" y="291" width="2" height="4" fill="#C4C4C4"/>
<rect x="421" y="291" width="2" height="4" fill="#C4C4C4"/>
<rect x="424" y="291" width="2" height="4" fill="#C4C4C4"/>
<rect x="427" y="291" width="2" height="4" fill="#C4C4C4"/>
<rect x="430" y="291" width="2" height="4" fill="#C4C4C4"/>
<rect x="433" y="291" width="2" height="4" fill="#C4C4C4"/>
<rect x="436" y="291" width="2" height="4" fill="#C4C4C4"/>
<rect x="439" y="291" width="2" height="4" fill="#C4C4C4"/>
<rect x="442" y="291" width="2" height="4" fill="#C4C4C4"/>
<rect x="445" y="291" width="2" height="4" fill="#C4C4C4"/>
<rect x="448" y="291" width="2" height="4" fill="#C4C4C4"/>
<rect x="451" y="291" width="2" height="4" fill="#C4C4C4"/>
<rect x="454" y="291" width="2" height="4" fill="#C4C4C4"/>
<rect x="457" y="291" width="2" height="4" fill="#C4C4C4"/>
<rect x="460" y="291" width="2" height="4" fill="#C4C4C4"/>
<rect x="463" y="291" width="2" height="4" fill="#C4C4C4"/>
<rect x="466" y="291" width="2" height="4" fill="#C4C4C4"/>
<rect x="469" y="291" width="2" height="4" fill="#C4C4C4"/>
<rect x="472" y="291" width="2" height="4" fill="#C4C4C4"/>
<rect x="475" y="291" width="2" height="4" fill="#C4C4C4"/>
<rect x="478" y="291" width="2" height="4" fill="#C4C4C4"/>
<rect x="481" y="291" width="2" height="4" fill="#C4C4C4"/>
<rect x="484" y="291" width="2" height="4" fill="#C4C4C4"/>
<rect x="487" y="291" width="2" height="4" fill="#C4C4C4"/>
<rect x="10" y="303" width="2" height="26" fill="#EEFF89"/>
<rect x="13" y="303" width="2" height="26" fill="#EEFF89"/>
<rect x="16" y="303" width="2" height="26" fill="#EEFF89"/>
<rect x="19" y="303" width="2" height="26" fill="#EEFF89"/>
<rect x="22" y="303" width="2" height="26" fill="#EEFF89"/>
<rect x="25" y="303" width="2" height="26" fill="#EEFF89"/>
<rect x="28" y="303" width="2" height="26" fill="#EEFF89"/>
<rect x="31" y="303" width="2" height="26" fill="#EEFF89"/>
<rect x="34" y="303" width="2" height="26" fill="#80B867"/>
<rect x="37" y="303" width="2" height="26" fill="#80B867"/>
<rect x="40" y="303" width="2" height="26" fill="#80B867"/>
<rect x="43" y="303" width="2" height="26" fill="#80B867"/>
<rect x="46" y="303" width="2" height="26" fill="#80B867"/>
<rect x="49" y="303" width="2" height="26" fill="#80B867"/>
<rect x="52" y="303" width="2" height="26" fill="#80B867"/>
<rect x="55" y="303" width="2" height="26" fill="#80B867"/>
<rect x="58" y="303" width="2" height="26" fill="#80B867"/>
<rect x="61" y="303" width="2" height="26" fill="#80B867"/>
<rect x="64" y="303" width="2" height="26" fill="#80B867"/>
<rect x="67" y="303" width="2" height="26" fill="#80B867"/>
<rect x="70" y="303" width="2" height="26" fill="#80B867"/>
<rect x="73" y="303" width="2" height="26" fill="#80B867"/>
<rect x="76" y="303" width="2" height="26" fill="#80B867"/>
<rect x="79" y="303" width="2" height="26" fill="#80B867"/>
<rect x="82" y="303" width="2" height="26" fill="#80B867"/>
<rect x="85" y="303" width="2" height="26" fill="#80B867"/>
<rect x="88" y="303" width="2" height="26" fill="#80B867"/>
<rect x="91" y="303" width="2" height="26" fill="#80B867"/>
<rect x="94" y="303" width="2" height="26" fill="#708A4E"/>
<rect x="97" y="303" width="2" height="26" fill="#708A4E"/>
<rect x="100" y="303" width="2" height="26" fill="#708A4E"/>
<rect x="103" y="303" width="2" height="26" fill="#708A4E"/>
<rect x="106" y="303" width="2" height="26" fill="#708A4E"/>
<rect x="109" y="303" width="2" height="26" fill="#708A4E"/>
<rect x="112" y="303" width="2" height="26" fill="#708A4E"/>
<rect x="115" y="303" width="2" height="26" fill="#708A4E"/>
<rect x="118" y="303" width="2" height="26" fill="#708A4E"/>
<rect x="121" y="303" width="2" height="26" fill="#708A4E"/>
<rect x="124" y="303" width="2" height="26" fill="#708A4E"/>
<rect x="127" y="303" width="2" height="26" fill="#708A4E"/>
<rect x="130" y="303" width="2" height="26" fill="#708A4E"/>
<rect x="133" y="303" width="2" height="26" fill="#708A4E"/>
<rect x="136" y="303" width="2" height="26" fill="#708A4E"/>
<rect x="139" y="303" width="2" height="26" fill="#708A4E"/>
<rect x="142" y="303" width="2" height="26" fill="#708A4E"/>
<rect x="145" y="303" width="2" height="26" fill="#708A4E"/>
<rect x="148" y="303" width="2" height="26" fill="#708A4E"/>
<rect x="151" y="303" width="2" height="26" fill="#708A4E"/>
<rect x="154" y="303" width="2" height="26" fill="#708A4E"/>
<rect x="157" y="303" width="2" height="26" fill="#708A4E"/>
<rect x="160" y="303" width="2" height="26" fill="#708A4E"/>
<rect x="163" y="303" width="2" height="26" fill="#708A4E"/>
<rect x="166" y="303" width="2" height="26" fill="#708A4E"/>
<rect x="169" y="303" width="2" height="26" fill="#708A4E"/>
<rect x="172" y="303" width="2" height="26" fill="#708A4E"/>
<rect x="175" y="303" width="2" height="26" fill="#708A4E"/>
<rect x="178" y="303" width="2" height="26" fill="#708A4E"/>
<rect x="181" y="303" width="2" height="26" fill="#708A4E"/>
<rect x="184" y="303" width="2" height="26" fill="#708A4E"/>
<rect x="187" y="303" width="2" height="26" fill="#708A4E"/>
<rect x="190" y="303" width="2" height="26" fill="#708A4E"/>
<rect x="193" y="303" width="2" height="26" fill="#708A4E"/>
<rect x="196" y="303" width="2" height="26" fill="#708A4E"/>
<rect x="199" y="303" width="2" height="26" fill="#708A4E"/>
<rect x="202" y="303" width="2" height="26" fill="#708A4E"/>
<rect x="205" y="303" width="2" height="26" fill="#708A4E"/>
<rect x="208" y="303" width="2" height="26" fill="#708A4E"/>
<rect x="211" y="303" width="2" height="26" fill="#708A4E"/>
<rect x="214" y="303" width="2" height="26" fill="#708A4E"/>
<rect x="217" y="303" width="2" height="26" fill="#708A4E"/>
<rect x="220" y="303" width="2" height="26" fill="#708A4E"/>
<rect x="223" y="303" width="2" height="26" fill="#708A4E"/>
<rect x="226" y="303" width="2" height="26" fill="#708A4E"/>
<rect x="229" y="303" width="2" height="26" fill="#708A4E"/>
<rect x="232" y="303" width="2" height="26" fill="#708A4E"/>
<rect x="235" y="303" width="2" height="26" fill="#708A4E"/>
<rect x="238" y="303" width="2" height="26" fill="#708A4E"/>
<rect x="241" y="303" width="2" height="26" fill="#708A4E"/>
<rect x="244" y="303" width="2" height="26" fill="#708A4E"/>
<rect x="247" y="303" width="2" height="26" fill="#708A4E"/>
<rect x="250" y="303" width="2" height="26" fill="#708A4E"/>
<rect x="253" y="303" width="2" height="26" fill="#708A4E"/>
<rect x="256" y="303" width="2" height="26" fill="#708A4E"/>
<rect x="259" y="303" width="2" height="26" fill="#708A4E"/>
<rect x="262" y="303" width="2" height="26" fill="#708A4E"/>
<rect x="265" y="303" width="2" height="26" fill="#708A4E"/>
<rect x="268" y="303" width="2" height="26" fill="#708A4E"/>
<rect x="271" y="303" width="2" height="26" fill="#708A4E"/>
<rect x="274" y="303" width="2" height="26" fill="#708A4E"/>
<rect x="277" y="303" width="2" height="26" fill="#708A4E"/>
<rect x="280" y="303" width="2" height="26" fill="#23277E"/>
<rect x="283" y="303" width="2" height="26" fill="#23277E"/>
<rect x="286" y="303" width="2" height="26" fill="#23277E"/>
<rect x="289" y="303" width="2" height="26" fill="#23277E"/>
<rect x="292" y="303" width="2" height="26" fill="#23277E"/>
<rect x="295" y="303" width="2" height="26" fill="#23277E"/>
<rect x="298" y="303" width="2" height="26" fill="#23277E"/>
<rect x="301" y="303" width="2" height="26" fill="#23277E"/>
<rect x="304" y="303" width="2" height="26" fill="#23277E"/>
<rect x="307" y="303" width="2" height="26" fill="#23277E"/>
<rect x="310" y="303" width="2" height="26" fill="#23277E"/>
<rect x="313" y="303" width="2" height="26" fill="#23277E"/>
<rect x="316" y="303" width="2" height="26" fill="#23277E"/>
<rect x="319" y="303" width="2" height="26" fill="#23277E"/>
<rect x="322" y="303" width="2" height="26" fill="#23277E"/>
<rect x="325" y="303" width="2" height="26" fill="#23277E"/>
<rect x="328" y="303" width="2" height="26" fill="#23277E"/>
<rect x="331" y="303" width="2" height="26" fill="#23277E"/>
<rect x="334" y="303" width="2" height="26" fill="#23277E"/>
<rect x="337" y="303" width="2" height="26" fill="#23277E"/>
<rect x="340" y="303" width="2" height="26" fill="#23277E"/>
<rect x="343" y="303" width="2" height="26" fill="#23277E"/>
<rect x="346" y="303" width="2" height="26" fill="#23277E"/>
<rect x="349" y="303" width="2" height="26" fill="#23277E"/>
<rect x="352" y="303" width="2" height="26" fill="#23277E"/>
<rect x="355" y="303" width="2" height="26" fill="#23277E"/>
<rect x="358" y="303" width="2" height="26" fill="#23277E"/>
<rect x="361" y="303" width="2" height="26" fill="#23277E"/>
<rect x="364" y="303" width="2" height="26" fill="#23277E"/>
<rect x="367" y="303" width="2" height="26" fill="#23277E"/>
<rect x="370" y="303" width="2" height="26" fill="#23277E"/>
<rect x="373" y="303" width="2" height="26" fill="#23277E"/>
<rect x="376" y="303" width="2" height="26" fill="#23277E"/>
<rect x="379" y="303" width="2" height="26" fill="#23277E"/>
<rect x="382" y="303" width="2" height="26" fill="#23277E"/>
<rect x="385" y="303" width="2" height="26" fill="#23277E"/>
<rect x="388" y="303" width="2" height="26" fill="#23277E"/>
<rect x="391" y="303" width="2" height="26" fill="#23277E"/>
<rect x="394" y="303" width="2" height="26" fill="#23277E"/>
<rect x="397" y="303" width="2" height="26" fill="#23277E"/>
<rect x="400" y="303" width="2" height="26" fill="#23277E"/>
<rect x="403" y="303" width="2" height="26" fill="#23277E"/>
<rect x="406" y="303" width="2" height="26" fill="#23277E"/>
<rect x="409" y="303" width="2" height="26" fill="#23277E"/>
<rect x="412" y="303" width="2" height="26" fill="#23277E"/>
<rect x="415" y="303" width="2" height="26" fill="#23277E"/>
<rect x="418" y="303" width="2" height="26" fill="#23277E"/>
<rect x="421" y="303" width="2" height="26" fill="#23277E"/>
<rect x="424" y="303" width="2" height="26" fill="#23277E"/>
<rect x="427" y="303" width="2" height="26" fill="#23277E"/>
<rect x="430" y="303" width="2" height="26" fill="#23277E"/>
<rect x="433" y="303" width="2" height="26" fill="#23277E"/>
<rect x="436" y="303" width="2" height="26" fill="#5191CC"/>
<rect x="439" y="303" width="2" height="26" fill="#5191CC"/>
<rect x="442" y="303" width="2" height="26" fill="#5191CC"/>
<rect x="445" y="303" width="2" height="26" fill="#5191CC"/>
<rect x="448" y="303" width="2" height="26" fill="#5191CC"/>
<rect x="451" y="303" width="2" height="26" fill="#5191CC"/>
<rect x="454" y="303" width="2" height="26" fill="#5191CC"/>
<rect x="457" y="303" width="2" height="26" fill="#5191CC"/>
<rect x="460" y="303" width="2" height="26" fill="#5191CC"/>
<rect x="463" y="303" width="2" height="26" fill="#5191CC"/>
<rect x="466" y="303" width="2" height="26" fill="#5191CC"/>
<rect x="469" y="303" width="2" height="26" fill="#5191CC"/>
<rect x="472" y="303" width="2" height="26" fill="#5191CC"/>
<rect x="475" y="303" width="2" height="26" fill="#5191CC"/>
<rect x="478" y="303" width="2" height="26" fill="#5191CC"/>
<rect x="481" y="303" width="2" height="26" fill="#5191CC"/>
<rect x="484" y="303" width="2" height="26" fill="#5191CC"/>
<rect x="487" y="303" width="2" height="26" fill="#5191CC"/>
<rect x="490" y="303" width="2" height="26" fill="#5191CC"/>
<rect x="493" y="303" width="2" height="26" fill="#5191CC"/>
<rect x="496" y="303" width="2" height="26" fill="#5191CC"/>
<rect x="499" y="303" width="2" height="26" fill="#5191CC"/>
<rect x="502" y="303" width="2" height="26" fill="#5191CC"/>
<rect x="505" y="303" width="2" height="26" fill="#5191CC"/>
<rect x="508" y="303" width="2" height="26" fill="#5191CC"/>
<rect x="511" y="303" width="2" height="26" fill="#5191CC"/>
<rect x="514" y="303" width="2" height="26" fill="#5191CC"/>
<rect x="517" y="303" width="2" height="26" fill="#5191CC"/>
<rect x="520" y="303" width="2" height="26" fill="#5191CC"/>
<rect x="523" y="303" width="2" height="26" fill="#5191CC"/>
<rect x="526" y="303" width="2" height="26" fill="#5191CC"/>
<rect x="529" y="303" width="2" height="26" fill="#5191CC"/>
<rect x="532" y="303" width="2" height="26" fill="#5191CC"/>
<rect x="535" y="303" width="2" height="26" fill="#5191CC"/>
<rect x="538" y="303" width="2" height="26" fill="#5191CC"/>
<rect x="541" y="303" width="2" height="26" fill="#5191CC"/>
<rect x="544" y="303" width="2" height="26" fill="#5191CC"/>
<rect x="547" y="303" width="2" height="26" fill="#5191CC"/>
<rect x="550" y="303" width="2" height="26" fill="#5191CC"/>
<rect x="553" y="303" width="2" height="26" fill="#5191CC"/>
<rect x="556" y="303" width="2" height="26" fill="#5191CC"/>
<rect x="559" y="303" width="2" height="26" fill="#5191CC"/>
<rect x="562" y="303" width="2" height="26" fill="#5191CC"/>
<rect x="565" y="303" width="2" height="26" fill="#5191CC"/>
<rect x="568" y="303" width="2" height="26" fill="#5191CC"/>
<rect x="571" y="303" width="2" height="26" fill="#5191CC"/>
<rect x="574" y="303" width="2" height="26" fill="#5191CC"/>
<rect x="577" y="303" width="2" height="26" fill="#5191CC"/>
<rect x="580" y="303" width="2" height="26" fill="#5191CC"/>
<rect x="583" y="303" width="2" height="26" fill="#5191CC"/>
<rect x="586" y="303" width="2" height="26" fill="#5191CC"/>
<rect x="589" y="303" width="2" height="26" fill="#5191CC"/>
<rect x="592" y="303" width="2" height="26" fill="#5191CC"/>
<rect x="595" y="303" width="2" height="26" fill="#5191CC"/>
<rect x="598" y="303" width="2" height="26" fill="#5191CC"/>
<rect x="601" y="303" width="2" height="26" fill="#5191CC"/>
<rect x="604" y="303" width="2" height="26" fill="#5191CC"/>
<rect x="607" y="303" width="2" height="26" fill="#5191CC"/>
<rect x="610" y="303" width="2" height="26" fill="#5191CC"/>
<rect x="613" y="303" width="2" height="26" fill="#5191CC"/>
<rect x="616" y="303" width="2" height="26" fill="#5191CC"/>
<rect x="619" y="303" width="2" height="26" fill="#5191CC"/>
<rect x="622" y="303" width="2" height="26" fill="#5191CC"/>
<rect x="625" y="303" width="2" height="26" fill="#5191CC"/>
<rect x="628" y="303" width="2" height="26" fill="#5191CC"/>
<rect x="631" y="303" width="2" height="26" fill="#5191CC"/>
<rect x="634" y="303" width="2" height="26" fill="#5191CC"/>
<rect x="637" y="303" width="2" height="26" fill="#5191CC"/>
<rect x="640" y="303" width="2" height="26" fill="#5191CC"/>
<rect x="643" y="303" width="2" height="26" fill="#5191CC"/>
<rect x="646" y="303" width="2" height="26" fill="#5191CC"/>
<rect x="649" y="303" width="2" height="26" fill="#5191CC"/>
<rect x="652" y="303" width="2" height="26" fill="#5191CC"/>
<rect x="655" y="303" width="2" height="26" fill="#5191CC"/>
<rect x="658" y="303" width="2" height="26" fill="#5191CC"/>
<rect x="661" y="303" width="2" height="26" fill="#5191CC"/>
<rect x="664" y="303" width="2" height="26" fill="#5191CC"/>
<rect x="667" y="303" width="2" height="26" fill="#5191CC"/>
<rect x="670" y="303" width="2" height="26" fill="#5191CC"/>
<rect x="673" y="303" width="2" height="26" fill="#5191CC"/>
<rect x="676" y="303" width="2" height="26" fill="#5191CC"/>
<rect x="679" y="303" width="2" height="26" fill="#5191CC"/>
<rect x="682" y="303" width="2" height="26" fill="#5191CC"/>
<rect x="685" y="303" width="2" height="26" fill="#5191CC"/>
<rect x="688" y="303" width="2" height="26" fill="#5191CC"/>
<rect x="691" y="303" width="2" height="26" fill="#5191CC"/>
<rect x="694" y="303" width="2" height="26" fill="#5191CC"/>
<rect x="697" y="303" width="2" height="26" fill="#5191CC"/>
<rect x="700" y="303" width="2" height="26" fill="#5191CC"/>
<rect x="703" y="303" width="2" height="26" fill="#5191CC"/>
<rect x="706" y="303" width="2" height="26" fill="#5191CC"/>
<rect x="709" y="303" width="2" height="26" fill="#5191CC"/>
<rect x="712" y="303" width="2" height="26" fill="#5191CC"/>
<rect x="715" y="303" width="2" height="26" fill="#5191CC"/>
<rect x="718" y="303" width="2" height="26" fill="#5191CC"/>
<rect x="721" y="303" width="2" height="26" fill="#5191CC"/>
<rect x="724" y="303" width="2" height="26" fill="#5191CC"/>
<rect x="727" y="303" width="2" height="26" fill="#C3E2FF"/>
<rect x="730" y="303" width="2" height="26" fill="#C3E2FF"/>
<rect x="733" y="303" width="2" height="26" fill="#C3E2FF"/>
<rect x="736" y="303" width="2" height="26" fill="#C3E2FF"/>
<rect x="374.5" y="55.5" width="17" height="17" fill="#EEFF89" stroke="#1A1A1A"/>
<rect x="374.5" y="107.5" width="17" height="17" fill="#708A4E" stroke="#1A1A1A"/>
<rect x="374.5" y="159.5" width="17" height="17" fill="#5191CC" stroke="#1A1A1A"/>
<rect x="374.5" y="81.5" width="17" height="17" fill="#80B867" stroke="#1A1A1A"/>
<rect x="374.5" y="133.5" width="17" height="17" fill="#23277E" stroke="#1A1A1A"/>
<rect x="374.5" y="185.5" width="17" height="17" fill="#C3E2FF" stroke="#1A1A1A"/>
<path d="M401.752 67.2754C401.756 67.5723 401.795 67.8418 401.869 68.084C401.947 68.3223 402.059 68.5273 402.203 68.6992C402.348 68.8672 402.525 68.998 402.736 69.0918C402.951 69.1855 403.197 69.2324 403.475 69.2324C403.779 69.2324 404.051 69.1699 404.289 69.0449C404.527 68.9199 404.729 68.7461 404.893 68.5234C405.057 68.3008 405.182 68.0352 405.268 67.7266C405.357 67.418 405.402 67.0801 405.402 66.7129V66.1855H402.566V65.3008H405.402V64.7559C405.402 64.3887 405.359 64.0508 405.273 63.7422C405.188 63.4297 405.062 63.1621 404.898 62.9395C404.734 62.7168 404.533 62.543 404.295 62.418C404.057 62.293 403.783 62.2305 403.475 62.2305C403.197 62.2305 402.951 62.2773 402.736 62.3711C402.525 62.4648 402.348 62.5977 402.203 62.7695C402.059 62.9375 401.947 63.1445 401.869 63.3906C401.795 63.6328 401.756 63.9023 401.752 64.1992H400.668C400.672 63.8047 400.738 63.4336 400.867 63.0859C401 62.7383 401.188 62.4355 401.43 62.1777C401.676 61.9199 401.971 61.7168 402.314 61.5684C402.658 61.4199 403.045 61.3457 403.475 61.3457C403.932 61.3457 404.346 61.4277 404.717 61.5918C405.088 61.7559 405.404 61.9883 405.666 62.2891C405.928 62.5859 406.129 62.9453 406.27 63.3672C406.414 63.7852 406.486 64.25 406.486 64.7617V66.707C406.486 67.2188 406.414 67.6836 406.27 68.1016C406.129 68.5195 405.928 68.8789 405.666 69.1797C405.404 69.4766 405.088 69.707 404.717 69.8711C404.346 70.0352 403.932 70.1172 403.475 70.1172C403.045 70.1172 402.658 70.0508 402.314 69.918C401.971 69.7812 401.676 69.5898 401.43 69.3438C401.188 69.0938 401 68.7949 400.867 68.4473C400.738 68.0957 400.672 67.7051 400.668 67.2754H401.752ZM410.283 67.2988H409.252V70H408.168V63.6602H409.252V66.3438H410.189L412.551 63.6602H413.869L411.15 66.7129L414.08 70H412.703L410.283 67.2988ZM418.135 69.2383C418.33 69.2383 418.52 69.207 418.703 69.1445C418.891 69.082 419.057 68.9961 419.201 68.8867C419.346 68.7734 419.461 68.6426 419.547 68.4941C419.637 68.3418 419.684 68.1777 419.688 68.002H420.713C420.709 68.2832 420.635 68.5527 420.49 68.8105C420.35 69.0645 420.16 69.2891 419.922 69.4844C419.684 69.6758 419.41 69.8301 419.102 69.9473C418.793 70.0605 418.471 70.1172 418.135 70.1172C417.654 70.1172 417.234 70.0312 416.875 69.8594C416.516 69.6875 416.215 69.457 415.973 69.168C415.734 68.875 415.555 68.5391 415.434 68.1602C415.312 67.7773 415.252 67.375 415.252 66.9531V66.707C415.252 66.2891 415.312 65.8887 415.434 65.5059C415.555 65.123 415.734 64.7871 415.973 64.498C416.215 64.2051 416.516 63.9727 416.875 63.8008C417.234 63.6289 417.654 63.543 418.135 63.543C418.51 63.543 418.854 63.6035 419.166 63.7246C419.482 63.8418 419.754 64.0039 419.98 64.2109C420.211 64.4141 420.391 64.6562 420.52 64.9375C420.648 65.2188 420.713 65.5195 420.713 65.8398H419.688C419.684 65.6484 419.641 65.4688 419.559 65.3008C419.48 65.1289 419.373 64.9785 419.236 64.8496C419.1 64.7207 418.936 64.6191 418.744 64.5449C418.557 64.4707 418.354 64.4336 418.135 64.4336C417.799 64.4336 417.516 64.502 417.285 64.6387C417.059 64.7715 416.875 64.9473 416.734 65.166C416.594 65.3809 416.492 65.623 416.43 65.8926C416.371 66.1621 416.342 66.4336 416.342 66.707V66.9531C416.342 67.2305 416.371 67.5059 416.43 67.7793C416.492 68.0488 416.592 68.293 416.729 68.5117C416.869 68.7266 417.053 68.9023 417.279 69.0391C417.51 69.1719 417.795 69.2383 418.135 69.2383ZM428.342 64.5391H425.811V70H424.721V64.5391H422.23V63.6602H428.342V64.5391ZM435.197 66.9004C435.197 67.3535 435.143 67.7773 435.033 68.1719C434.924 68.5625 434.764 68.9023 434.553 69.1914C434.342 69.4805 434.08 69.707 433.768 69.8711C433.459 70.0352 433.105 70.1172 432.707 70.1172C432.32 70.1172 431.979 70.0547 431.682 69.9297C431.389 69.8047 431.137 69.625 430.926 69.3906V72.4375H429.842V63.6602H430.832L430.885 64.3516C431.096 64.0898 431.35 63.8906 431.646 63.7539C431.947 63.6133 432.295 63.543 432.689 63.543C433.096 63.543 433.455 63.623 433.768 63.7832C434.08 63.9434 434.342 64.166 434.553 64.4512C434.764 64.7363 434.924 65.0781 435.033 65.4766C435.143 65.8711 435.197 66.3047 435.197 66.7773V66.9004ZM434.113 66.7773C434.113 66.4688 434.078 66.1758 434.008 65.8984C433.941 65.6172 433.836 65.3711 433.691 65.1602C433.551 64.9453 433.371 64.7754 433.152 64.6504C432.934 64.5254 432.672 64.4629 432.367 64.4629C432.02 64.4629 431.727 64.5449 431.488 64.709C431.254 64.8691 431.066 65.0762 430.926 65.3301V68.3828C431.066 68.6328 431.254 68.8379 431.488 68.998C431.723 69.1543 432.02 69.2324 432.379 69.2324C432.68 69.2324 432.939 69.1699 433.158 69.0449C433.377 68.916 433.557 68.7441 433.697 68.5293C433.838 68.3145 433.941 68.0664 434.008 67.7852C434.078 67.5039 434.113 67.209 434.113 66.9004V66.7773ZM441.221 70C441.178 69.918 441.143 69.8164 441.115 69.6953C441.092 69.5703 441.074 69.4414 441.062 69.3086C440.953 69.418 440.83 69.5215 440.693 69.6191C440.561 69.7168 440.412 69.8027 440.248 69.877C440.088 69.9512 439.916 70.0098 439.732 70.0527C439.549 70.0957 439.354 70.1172 439.146 70.1172C438.811 70.1172 438.506 70.0684 438.232 69.9707C437.963 69.873 437.732 69.7422 437.541 69.5781C437.354 69.4102 437.207 69.2129 437.102 68.9863C437 68.7559 436.949 68.5078 436.949 68.2422C436.949 67.8945 437.018 67.5898 437.154 67.3281C437.295 67.0664 437.492 66.8496 437.746 66.6777C438 66.502 438.305 66.3711 438.66 66.2852C439.02 66.1992 439.42 66.1562 439.861 66.1562H441.045V65.6582C441.045 65.4668 441.01 65.2949 440.939 65.1426C440.869 64.9902 440.77 64.8613 440.641 64.7559C440.512 64.6465 440.354 64.5625 440.166 64.5039C439.982 64.4453 439.775 64.416 439.545 64.416C439.33 64.416 439.137 64.4434 438.965 64.498C438.797 64.5527 438.654 64.625 438.537 64.7148C438.42 64.8047 438.328 64.9121 438.262 65.0371C438.199 65.1582 438.168 65.2852 438.168 65.418H437.078C437.082 65.1875 437.141 64.9609 437.254 64.7383C437.371 64.5156 437.537 64.3164 437.752 64.1406C437.971 63.9609 438.234 63.8164 438.543 63.707C438.855 63.5977 439.209 63.543 439.604 63.543C439.963 63.543 440.297 63.5879 440.605 63.6777C440.914 63.7637 441.18 63.8965 441.402 64.0762C441.629 64.252 441.807 64.4727 441.936 64.7383C442.064 65.0039 442.129 65.3145 442.129 65.6699V68.6172C442.129 68.8281 442.148 69.0527 442.188 69.291C442.227 69.5254 442.281 69.7305 442.352 69.9062V70H441.221ZM439.305 69.1738C439.516 69.1738 439.713 69.1465 439.896 69.0918C440.08 69.0371 440.246 68.9648 440.395 68.875C440.547 68.7852 440.678 68.6836 440.787 68.5703C440.896 68.4531 440.982 68.332 441.045 68.207V66.9238H440.037C439.404 66.9238 438.912 67.0176 438.561 67.2051C438.209 67.3926 438.033 67.6875 438.033 68.0898C438.033 68.2461 438.059 68.3906 438.109 68.5234C438.164 68.6562 438.244 68.7715 438.35 68.8691C438.455 68.9629 438.588 69.0371 438.748 69.0918C438.908 69.1465 439.094 69.1738 439.305 69.1738Z" fill="#646464"/>
<path d="M406.773 88.3945H404.137V96H403.082V88.3945H400.445V87.4688H406.773V88.3945ZM407.922 92.7715C407.922 92.3145 407.988 91.8906 408.121 91.5C408.254 91.1055 408.443 90.7637 408.689 90.4746C408.939 90.1855 409.242 89.959 409.598 89.7949C409.953 89.627 410.354 89.543 410.799 89.543C411.248 89.543 411.65 89.627 412.006 89.7949C412.365 89.959 412.668 90.1855 412.914 90.4746C413.164 90.7637 413.355 91.1055 413.488 91.5C413.621 91.8906 413.688 92.3145 413.688 92.7715V92.9004C413.688 93.3574 413.621 93.7812 413.488 94.1719C413.355 94.5625 413.164 94.9023 412.914 95.1914C412.668 95.4805 412.367 95.707 412.012 95.8711C411.656 96.0352 411.256 96.1172 410.811 96.1172C410.361 96.1172 409.957 96.0352 409.598 95.8711C409.242 95.707 408.939 95.4805 408.689 95.1914C408.443 94.9023 408.254 94.5625 408.121 94.1719C407.988 93.7812 407.922 93.3574 407.922 92.9004V92.7715ZM409.006 92.9004C409.006 93.2129 409.043 93.5117 409.117 93.7969C409.191 94.0781 409.303 94.3262 409.451 94.541C409.604 94.7559 409.793 94.9258 410.02 95.0508C410.246 95.1758 410.51 95.2383 410.811 95.2383C411.107 95.2383 411.367 95.1758 411.59 95.0508C411.816 94.9258 412.004 94.7559 412.152 94.541C412.305 94.3262 412.418 94.0781 412.492 93.7969C412.566 93.5117 412.604 93.2129 412.604 92.9004V92.7715C412.604 92.4629 412.564 92.168 412.486 91.8867C412.412 91.6016 412.299 91.3516 412.146 91.1367C411.998 90.9219 411.811 90.752 411.584 90.627C411.361 90.498 411.1 90.4336 410.799 90.4336C410.498 90.4336 410.236 90.498 410.014 90.627C409.791 90.752 409.604 90.9219 409.451 91.1367C409.303 91.3516 409.191 91.6016 409.117 91.8867C409.043 92.168 409.006 92.4629 409.006 92.7715V92.9004ZM420.643 96H419.559V93.6855C419.293 93.752 419.018 93.8027 418.732 93.8379C418.451 93.873 418.145 93.8906 417.812 93.8906C417.422 93.8906 417.068 93.8418 416.752 93.7441C416.436 93.6465 416.164 93.5 415.938 93.3047C415.715 93.1055 415.543 92.8574 415.422 92.5605C415.301 92.2598 415.24 91.9082 415.24 91.5059V89.6602H416.324V91.5059C416.328 92.0254 416.457 92.4043 416.711 92.6426C416.969 92.8809 417.336 93 417.812 93C418.129 93 418.432 92.9824 418.721 92.9473C419.01 92.9121 419.289 92.8613 419.559 92.7949V89.6602H420.643V96ZM427.85 96H426.766V93.293H423.672V96H422.588V89.6602H423.672V92.4082H426.766V89.6602H427.85V96ZM429.543 92.7715C429.543 92.3145 429.609 91.8906 429.742 91.5C429.875 91.1055 430.064 90.7637 430.311 90.4746C430.561 90.1855 430.863 89.959 431.219 89.7949C431.574 89.627 431.975 89.543 432.42 89.543C432.869 89.543 433.271 89.627 433.627 89.7949C433.986 89.959 434.289 90.1855 434.535 90.4746C434.785 90.7637 434.977 91.1055 435.109 91.5C435.242 91.8906 435.309 92.3145 435.309 92.7715V92.9004C435.309 93.3574 435.242 93.7812 435.109 94.1719C434.977 94.5625 434.785 94.9023 434.535 95.1914C434.289 95.4805 433.988 95.707 433.633 95.8711C433.277 96.0352 432.877 96.1172 432.432 96.1172C431.982 96.1172 431.578 96.0352 431.219 95.8711C430.863 95.707 430.561 95.4805 430.311 95.1914C430.064 94.9023 429.875 94.5625 429.742 94.1719C429.609 93.7812 429.543 93.3574 429.543 92.9004V92.7715ZM430.627 92.9004C430.627 93.2129 430.664 93.5117 430.738 93.7969C430.812 94.0781 430.924 94.3262 431.072 94.541C431.225 94.7559 431.414 94.9258 431.641 95.0508C431.867 95.1758 432.131 95.2383 432.432 95.2383C432.729 95.2383 432.988 95.1758 433.211 95.0508C433.438 94.9258 433.625 94.7559 433.773 94.541C433.926 94.3262 434.039 94.0781 434.113 93.7969C434.188 93.5117 434.225 93.2129 434.225 92.9004V92.7715C434.225 92.4629 434.186 92.168 434.107 91.8867C434.033 91.6016 433.92 91.3516 433.768 91.1367C433.619 90.9219 433.432 90.752 433.205 90.627C432.982 90.498 432.721 90.4336 432.42 90.4336C432.119 90.4336 431.857 90.498 431.635 90.627C431.412 90.752 431.225 90.9219 431.072 91.1367C430.924 91.3516 430.812 91.6016 430.738 91.8867C430.664 92.168 430.627 92.4629 430.627 92.7715V92.9004ZM444.156 95.1152C444.324 95.0918 444.465 95.0039 444.578 94.8516C444.695 94.6953 444.791 94.4844 444.865 94.2188C444.939 93.9531 444.998 93.6367 445.041 93.2695C445.088 92.9023 445.125 92.4922 445.152 92.0391L445.246 89.6602H449.33V95.1152H450.145L450.039 97.8633H449.061V96H444.637V97.8633H443.664L443.559 95.1152H444.156ZM446.236 92.0391C446.217 92.3672 446.191 92.6797 446.16 92.9766C446.133 93.2734 446.098 93.5527 446.055 93.8145C446.012 94.0723 445.957 94.3105 445.891 94.5293C445.828 94.748 445.75 94.9434 445.656 95.1152H448.246V90.6621H446.289L446.236 92.0391ZM455.635 96C455.592 95.918 455.557 95.8164 455.529 95.6953C455.506 95.5703 455.488 95.4414 455.477 95.3086C455.367 95.418 455.244 95.5215 455.107 95.6191C454.975 95.7168 454.826 95.8027 454.662 95.877C454.502 95.9512 454.33 96.0098 454.146 96.0527C453.963 96.0957 453.768 96.1172 453.561 96.1172C453.225 96.1172 452.92 96.0684 452.646 95.9707C452.377 95.873 452.146 95.7422 451.955 95.5781C451.768 95.4102 451.621 95.2129 451.516 94.9863C451.414 94.7559 451.363 94.5078 451.363 94.2422C451.363 93.8945 451.432 93.5898 451.568 93.3281C451.709 93.0664 451.906 92.8496 452.16 92.6777C452.414 92.502 452.719 92.3711 453.074 92.2852C453.434 92.1992 453.834 92.1562 454.275 92.1562H455.459V91.6582C455.459 91.4668 455.424 91.2949 455.354 91.1426C455.283 90.9902 455.184 90.8613 455.055 90.7559C454.926 90.6465 454.768 90.5625 454.58 90.5039C454.396 90.4453 454.189 90.416 453.959 90.416C453.744 90.416 453.551 90.4434 453.379 90.498C453.211 90.5527 453.068 90.625 452.951 90.7148C452.834 90.8047 452.742 90.9121 452.676 91.0371C452.613 91.1582 452.582 91.2852 452.582 91.418H451.492C451.496 91.1875 451.555 90.9609 451.668 90.7383C451.785 90.5156 451.951 90.3164 452.166 90.1406C452.385 89.9609 452.648 89.8164 452.957 89.707C453.27 89.5977 453.623 89.543 454.018 89.543C454.377 89.543 454.711 89.5879 455.02 89.6777C455.328 89.7637 455.594 89.8965 455.816 90.0762C456.043 90.252 456.221 90.4727 456.35 90.7383C456.479 91.0039 456.543 91.3145 456.543 91.6699V94.6172C456.543 94.8281 456.562 95.0527 456.602 95.291C456.641 95.5254 456.695 95.7305 456.766 95.9062V96H455.635ZM453.719 95.1738C453.93 95.1738 454.127 95.1465 454.311 95.0918C454.494 95.0371 454.66 94.9648 454.809 94.875C454.961 94.7852 455.092 94.6836 455.201 94.5703C455.311 94.4531 455.396 94.332 455.459 94.207V92.9238H454.451C453.818 92.9238 453.326 93.0176 452.975 93.2051C452.623 93.3926 452.447 93.6875 452.447 94.0898C452.447 94.2461 452.473 94.3906 452.523 94.5234C452.578 94.6562 452.658 94.7715 452.764 94.8691C452.869 94.9629 453.002 95.0371 453.162 95.0918C453.322 95.1465 453.508 95.1738 453.719 95.1738Z" fill="#646464"/>
<path d="M406.545 119.434C406.494 119.828 406.393 120.191 406.24 120.523C406.088 120.852 405.889 121.135 405.643 121.373C405.4 121.607 405.111 121.791 404.775 121.924C404.443 122.053 404.072 122.117 403.662 122.117C403.311 122.117 402.99 122.068 402.701 121.971C402.416 121.869 402.16 121.73 401.934 121.555C401.711 121.379 401.518 121.172 401.354 120.934C401.193 120.695 401.059 120.436 400.949 120.154C400.844 119.873 400.764 119.578 400.709 119.27C400.658 118.961 400.631 118.648 400.627 118.332V117.143C400.631 116.826 400.658 116.514 400.709 116.205C400.764 115.896 400.844 115.602 400.949 115.32C401.059 115.039 401.193 114.779 401.354 114.541C401.518 114.299 401.711 114.09 401.934 113.914C402.16 113.738 402.416 113.602 402.701 113.504C402.986 113.402 403.307 113.352 403.662 113.352C404.088 113.352 404.469 113.418 404.805 113.551C405.141 113.68 405.43 113.865 405.672 114.107C405.914 114.346 406.107 114.633 406.252 114.969C406.4 115.305 406.498 115.676 406.545 116.082H405.461C405.426 115.824 405.365 115.584 405.279 115.361C405.193 115.139 405.078 114.943 404.934 114.775C404.789 114.607 404.611 114.477 404.4 114.383C404.193 114.285 403.947 114.236 403.662 114.236C403.404 114.236 403.176 114.279 402.977 114.365C402.781 114.447 402.611 114.561 402.467 114.705C402.326 114.85 402.207 115.018 402.109 115.209C402.016 115.4 401.939 115.604 401.881 115.818C401.822 116.033 401.779 116.254 401.752 116.48C401.729 116.703 401.717 116.92 401.717 117.131V118.332C401.717 118.543 401.729 118.762 401.752 118.988C401.779 119.211 401.822 119.432 401.881 119.65C401.939 119.865 402.016 120.068 402.109 120.26C402.203 120.451 402.322 120.621 402.467 120.77C402.611 120.914 402.781 121.029 402.977 121.115C403.172 121.197 403.4 121.238 403.662 121.238C403.947 121.238 404.193 121.193 404.4 121.104C404.611 121.014 404.789 120.889 404.934 120.729C405.078 120.564 405.193 120.373 405.279 120.154C405.365 119.932 405.426 119.691 405.461 119.434H406.545ZM410.283 119.299H409.252V122H408.168V115.66H409.252V118.344H410.189L412.551 115.66H413.869L411.15 118.713L414.08 122H412.703L410.283 119.299ZM415.129 118.771C415.129 118.314 415.195 117.891 415.328 117.5C415.461 117.105 415.65 116.764 415.896 116.475C416.146 116.186 416.449 115.959 416.805 115.795C417.16 115.627 417.561 115.543 418.006 115.543C418.455 115.543 418.857 115.627 419.213 115.795C419.572 115.959 419.875 116.186 420.121 116.475C420.371 116.764 420.562 117.105 420.695 117.5C420.828 117.891 420.895 118.314 420.895 118.771V118.9C420.895 119.357 420.828 119.781 420.695 120.172C420.562 120.562 420.371 120.902 420.121 121.191C419.875 121.48 419.574 121.707 419.219 121.871C418.863 122.035 418.463 122.117 418.018 122.117C417.568 122.117 417.164 122.035 416.805 121.871C416.449 121.707 416.146 121.48 415.896 121.191C415.65 120.902 415.461 120.562 415.328 120.172C415.195 119.781 415.129 119.357 415.129 118.9V118.771ZM416.213 118.9C416.213 119.213 416.25 119.512 416.324 119.797C416.398 120.078 416.51 120.326 416.658 120.541C416.811 120.756 417 120.926 417.227 121.051C417.453 121.176 417.717 121.238 418.018 121.238C418.314 121.238 418.574 121.176 418.797 121.051C419.023 120.926 419.211 120.756 419.359 120.541C419.512 120.326 419.625 120.078 419.699 119.797C419.773 119.512 419.811 119.213 419.811 118.9V118.771C419.811 118.463 419.771 118.168 419.693 117.887C419.619 117.602 419.506 117.352 419.354 117.137C419.205 116.922 419.018 116.752 418.791 116.627C418.568 116.498 418.307 116.434 418.006 116.434C417.705 116.434 417.443 116.498 417.221 116.627C416.998 116.752 416.811 116.922 416.658 117.137C416.51 117.352 416.398 117.602 416.324 117.887C416.25 118.168 416.213 118.463 416.213 118.771V118.9ZM427.99 118.9C427.99 119.354 427.936 119.777 427.826 120.172C427.717 120.562 427.557 120.902 427.346 121.191C427.135 121.48 426.873 121.707 426.561 121.871C426.252 122.035 425.898 122.117 425.5 122.117C425.113 122.117 424.771 122.055 424.475 121.93C424.182 121.805 423.93 121.625 423.719 121.391V124.438H422.635V115.66H423.625L423.678 116.352C423.889 116.09 424.143 115.891 424.439 115.754C424.74 115.613 425.088 115.543 425.482 115.543C425.889 115.543 426.248 115.623 426.561 115.783C426.873 115.943 427.135 116.166 427.346 116.451C427.557 116.736 427.717 117.078 427.826 117.477C427.936 117.871 427.99 118.305 427.99 118.777V118.9ZM426.906 118.777C426.906 118.469 426.871 118.176 426.801 117.898C426.734 117.617 426.629 117.371 426.484 117.16C426.344 116.945 426.164 116.775 425.945 116.65C425.727 116.525 425.465 116.463 425.16 116.463C424.812 116.463 424.52 116.545 424.281 116.709C424.047 116.869 423.859 117.076 423.719 117.33V120.383C423.859 120.633 424.047 120.838 424.281 120.998C424.516 121.154 424.812 121.232 425.172 121.232C425.473 121.232 425.732 121.17 425.951 121.045C426.17 120.916 426.35 120.744 426.49 120.529C426.631 120.314 426.734 120.066 426.801 119.785C426.871 119.504 426.906 119.209 426.906 118.9V118.777ZM432.648 122.117C432.203 122.117 431.793 122.041 431.418 121.889C431.047 121.736 430.729 121.523 430.463 121.25C430.197 120.977 429.99 120.652 429.842 120.277C429.693 119.902 429.619 119.494 429.619 119.053V118.807C429.619 118.295 429.701 117.838 429.865 117.436C430.029 117.029 430.246 116.688 430.516 116.41C430.789 116.129 431.098 115.914 431.441 115.766C431.789 115.617 432.145 115.543 432.508 115.543C432.965 115.543 433.363 115.623 433.703 115.783C434.047 115.939 434.332 116.158 434.559 116.439C434.785 116.717 434.953 117.045 435.062 117.424C435.176 117.803 435.232 118.213 435.232 118.654V119.141H430.703C430.715 119.43 430.77 119.701 430.867 119.955C430.969 120.209 431.105 120.432 431.277 120.623C431.453 120.811 431.662 120.959 431.904 121.068C432.146 121.178 432.414 121.232 432.707 121.232C433.094 121.232 433.438 121.154 433.738 120.998C434.039 120.842 434.289 120.635 434.488 120.377L435.15 120.893C435.045 121.053 434.912 121.207 434.752 121.355C434.596 121.5 434.414 121.629 434.207 121.742C434 121.855 433.766 121.945 433.504 122.012C433.242 122.082 432.957 122.117 432.648 122.117ZM432.508 116.434C432.289 116.434 432.082 116.475 431.887 116.557C431.691 116.635 431.516 116.752 431.359 116.908C431.203 117.061 431.07 117.25 430.961 117.477C430.855 117.699 430.781 117.957 430.738 118.25H434.148V118.168C434.137 117.957 434.096 117.748 434.025 117.541C433.959 117.334 433.859 117.148 433.727 116.984C433.594 116.82 433.426 116.688 433.223 116.586C433.023 116.484 432.785 116.434 432.508 116.434ZM439.855 122.117C439.41 122.117 439 122.041 438.625 121.889C438.254 121.736 437.936 121.523 437.67 121.25C437.404 120.977 437.197 120.652 437.049 120.277C436.9 119.902 436.826 119.494 436.826 119.053V118.807C436.826 118.295 436.908 117.838 437.072 117.436C437.236 117.029 437.453 116.688 437.723 116.41C437.996 116.129 438.305 115.914 438.648 115.766C438.996 115.617 439.352 115.543 439.715 115.543C440.172 115.543 440.57 115.623 440.91 115.783C441.254 115.939 441.539 116.158 441.766 116.439C441.992 116.717 442.16 117.045 442.27 117.424C442.383 117.803 442.439 118.213 442.439 118.654V119.141H437.91C437.922 119.43 437.977 119.701 438.074 119.955C438.176 120.209 438.312 120.432 438.484 120.623C438.66 120.811 438.869 120.959 439.111 121.068C439.354 121.178 439.621 121.232 439.914 121.232C440.301 121.232 440.645 121.154 440.945 120.998C441.246 120.842 441.496 120.635 441.695 120.377L442.357 120.893C442.252 121.053 442.119 121.207 441.959 121.355C441.803 121.5 441.621 121.629 441.414 121.742C441.207 121.855 440.973 121.945 440.711 122.012C440.449 122.082 440.164 122.117 439.855 122.117ZM439.715 116.434C439.496 116.434 439.289 116.475 439.094 116.557C438.898 116.635 438.723 116.752 438.566 116.908C438.41 117.061 438.277 117.25 438.168 117.477C438.062 117.699 437.988 117.957 437.945 118.25H441.355V118.168C441.344 117.957 441.303 117.748 441.232 117.541C441.166 117.334 441.066 117.148 440.934 116.984C440.801 116.82 440.633 116.688 440.43 116.586C440.23 116.484 439.992 116.434 439.715 116.434ZM451.363 121.115C451.531 121.092 451.672 121.004 451.785 120.852C451.902 120.695 451.998 120.484 452.072 120.219C452.146 119.953 452.205 119.637 452.248 119.27C452.295 118.902 452.332 118.492 452.359 118.039L452.453 115.66H456.537V121.115H457.352L457.246 123.863H456.268V122H451.844V123.863H450.871L450.766 121.115H451.363ZM453.443 118.039C453.424 118.367 453.398 118.68 453.367 118.977C453.34 119.273 453.305 119.553 453.262 119.814C453.219 120.072 453.164 120.311 453.098 120.529C453.035 120.748 452.957 120.943 452.863 121.115H455.453V116.662H453.496L453.443 118.039ZM462.842 122C462.799 121.918 462.764 121.816 462.736 121.695C462.713 121.57 462.695 121.441 462.684 121.309C462.574 121.418 462.451 121.521 462.314 121.619C462.182 121.717 462.033 121.803 461.869 121.877C461.709 121.951 461.537 122.01 461.354 122.053C461.17 122.096 460.975 122.117 460.768 122.117C460.432 122.117 460.127 122.068 459.854 121.971C459.584 121.873 459.354 121.742 459.162 121.578C458.975 121.41 458.828 121.213 458.723 120.986C458.621 120.756 458.57 120.508 458.57 120.242C458.57 119.895 458.639 119.59 458.775 119.328C458.916 119.066 459.113 118.85 459.367 118.678C459.621 118.502 459.926 118.371 460.281 118.285C460.641 118.199 461.041 118.156 461.482 118.156H462.666V117.658C462.666 117.467 462.631 117.295 462.561 117.143C462.49 116.99 462.391 116.861 462.262 116.756C462.133 116.646 461.975 116.562 461.787 116.504C461.604 116.445 461.396 116.416 461.166 116.416C460.951 116.416 460.758 116.443 460.586 116.498C460.418 116.553 460.275 116.625 460.158 116.715C460.041 116.805 459.949 116.912 459.883 117.037C459.82 117.158 459.789 117.285 459.789 117.418H458.699C458.703 117.188 458.762 116.961 458.875 116.738C458.992 116.516 459.158 116.316 459.373 116.141C459.592 115.961 459.855 115.816 460.164 115.707C460.477 115.598 460.83 115.543 461.225 115.543C461.584 115.543 461.918 115.588 462.227 115.678C462.535 115.764 462.801 115.896 463.023 116.076C463.25 116.252 463.428 116.473 463.557 116.738C463.686 117.004 463.75 117.314 463.75 117.67V120.617C463.75 120.828 463.77 121.053 463.809 121.291C463.848 121.525 463.902 121.73 463.973 121.906V122H462.842ZM460.926 121.174C461.137 121.174 461.334 121.146 461.518 121.092C461.701 121.037 461.867 120.965 462.016 120.875C462.168 120.785 462.299 120.684 462.408 120.57C462.518 120.453 462.604 120.332 462.666 120.207V118.924H461.658C461.025 118.924 460.533 119.018 460.182 119.205C459.83 119.393 459.654 119.688 459.654 120.09C459.654 120.246 459.68 120.391 459.73 120.523C459.785 120.656 459.865 120.771 459.971 120.869C460.076 120.963 460.209 121.037 460.369 121.092C460.529 121.146 460.715 121.174 460.926 121.174Z" fill="#646464"/>
<path d="M406.545 145.434C406.494 145.828 406.393 146.191 406.24 146.523C406.088 146.852 405.889 147.135 405.643 147.373C405.4 147.607 405.111 147.791 404.775 147.924C404.443 148.053 404.072 148.117 403.662 148.117C403.311 148.117 402.99 148.068 402.701 147.971C402.416 147.869 402.16 147.73 401.934 147.555C401.711 147.379 401.518 147.172 401.354 146.934C401.193 146.695 401.059 146.436 400.949 146.154C400.844 145.873 400.764 145.578 400.709 145.27C400.658 144.961 400.631 144.648 400.627 144.332V143.143C400.631 142.826 400.658 142.514 400.709 142.205C400.764 141.896 400.844 141.602 400.949 141.32C401.059 141.039 401.193 140.779 401.354 140.541C401.518 140.299 401.711 140.09 401.934 139.914C402.16 139.738 402.416 139.602 402.701 139.504C402.986 139.402 403.307 139.352 403.662 139.352C404.088 139.352 404.469 139.418 404.805 139.551C405.141 139.68 405.43 139.865 405.672 140.107C405.914 140.346 406.107 140.633 406.252 140.969C406.4 141.305 406.498 141.676 406.545 142.082H405.461C405.426 141.824 405.365 141.584 405.279 141.361C405.193 141.139 405.078 140.943 404.934 140.775C404.789 140.607 404.611 140.477 404.4 140.383C404.193 140.285 403.947 140.236 403.662 140.236C403.404 140.236 403.176 140.279 402.977 140.365C402.781 140.447 402.611 140.561 402.467 140.705C402.326 140.85 402.207 141.018 402.109 141.209C402.016 141.4 401.939 141.604 401.881 141.818C401.822 142.033 401.779 142.254 401.752 142.48C401.729 142.703 401.717 142.92 401.717 143.131V144.332C401.717 144.543 401.729 144.762 401.752 144.988C401.779 145.211 401.822 145.432 401.881 145.65C401.939 145.865 402.016 146.068 402.109 146.26C402.203 146.451 402.322 146.621 402.467 146.77C402.611 146.914 402.781 147.029 402.977 147.115C403.172 147.197 403.4 147.238 403.662 147.238C403.947 147.238 404.193 147.193 404.4 147.104C404.611 147.014 404.789 146.889 404.934 146.729C405.078 146.564 405.193 146.373 405.279 146.154C405.365 145.932 405.426 145.691 405.461 145.434H406.545ZM410.283 145.299H409.252V148H408.168V141.66H409.252V144.344H410.189L412.551 141.66H413.869L411.15 144.713L414.08 148H412.703L410.283 145.299ZM415.129 144.771C415.129 144.314 415.195 143.891 415.328 143.5C415.461 143.105 415.65 142.764 415.896 142.475C416.146 142.186 416.449 141.959 416.805 141.795C417.16 141.627 417.561 141.543 418.006 141.543C418.455 141.543 418.857 141.627 419.213 141.795C419.572 141.959 419.875 142.186 420.121 142.475C420.371 142.764 420.562 143.105 420.695 143.5C420.828 143.891 420.895 144.314 420.895 144.771V144.9C420.895 145.357 420.828 145.781 420.695 146.172C420.562 146.562 420.371 146.902 420.121 147.191C419.875 147.48 419.574 147.707 419.219 147.871C418.863 148.035 418.463 148.117 418.018 148.117C417.568 148.117 417.164 148.035 416.805 147.871C416.449 147.707 416.146 147.48 415.896 147.191C415.65 146.902 415.461 146.562 415.328 146.172C415.195 145.781 415.129 145.357 415.129 144.9V144.771ZM416.213 144.9C416.213 145.213 416.25 145.512 416.324 145.797C416.398 146.078 416.51 146.326 416.658 146.541C416.811 146.756 417 146.926 417.227 147.051C417.453 147.176 417.717 147.238 418.018 147.238C418.314 147.238 418.574 147.176 418.797 147.051C419.023 146.926 419.211 146.756 419.359 146.541C419.512 146.326 419.625 146.078 419.699 145.797C419.773 145.512 419.811 145.213 419.811 144.9V144.771C419.811 144.463 419.771 144.168 419.693 143.887C419.619 143.602 419.506 143.352 419.354 143.137C419.205 142.922 419.018 142.752 418.791 142.627C418.568 142.498 418.307 142.434 418.006 142.434C417.705 142.434 417.443 142.498 417.221 142.627C416.998 142.752 416.811 142.922 416.658 143.137C416.51 143.352 416.398 143.602 416.324 143.887C416.25 144.168 416.213 144.463 416.213 144.771V144.9ZM427.99 144.9C427.99 145.354 427.936 145.777 427.826 146.172C427.717 146.562 427.557 146.902 427.346 147.191C427.135 147.48 426.873 147.707 426.561 147.871C426.252 148.035 425.898 148.117 425.5 148.117C425.113 148.117 424.771 148.055 424.475 147.93C424.182 147.805 423.93 147.625 423.719 147.391V150.438H422.635V141.66H423.625L423.678 142.352C423.889 142.09 424.143 141.891 424.439 141.754C424.74 141.613 425.088 141.543 425.482 141.543C425.889 141.543 426.248 141.623 426.561 141.783C426.873 141.943 427.135 142.166 427.346 142.451C427.557 142.736 427.717 143.078 427.826 143.477C427.936 143.871 427.99 144.305 427.99 144.777V144.9ZM426.906 144.777C426.906 144.469 426.871 144.176 426.801 143.898C426.734 143.617 426.629 143.371 426.484 143.16C426.344 142.945 426.164 142.775 425.945 142.65C425.727 142.525 425.465 142.463 425.16 142.463C424.812 142.463 424.52 142.545 424.281 142.709C424.047 142.869 423.859 143.076 423.719 143.33V146.383C423.859 146.633 424.047 146.838 424.281 146.998C424.516 147.154 424.812 147.232 425.172 147.232C425.473 147.232 425.732 147.17 425.951 147.045C426.17 146.916 426.35 146.744 426.49 146.529C426.631 146.314 426.734 146.066 426.801 145.785C426.871 145.504 426.906 145.209 426.906 144.9V144.777ZM432.648 148.117C432.203 148.117 431.793 148.041 431.418 147.889C431.047 147.736 430.729 147.523 430.463 147.25C430.197 146.977 429.99 146.652 429.842 146.277C429.693 145.902 429.619 145.494 429.619 145.053V144.807C429.619 144.295 429.701 143.838 429.865 143.436C430.029 143.029 430.246 142.688 430.516 142.41C430.789 142.129 431.098 141.914 431.441 141.766C431.789 141.617 432.145 141.543 432.508 141.543C432.965 141.543 433.363 141.623 433.703 141.783C434.047 141.939 434.332 142.158 434.559 142.439C434.785 142.717 434.953 143.045 435.062 143.424C435.176 143.803 435.232 144.213 435.232 144.654V145.141H430.703C430.715 145.43 430.77 145.701 430.867 145.955C430.969 146.209 431.105 146.432 431.277 146.623C431.453 146.811 431.662 146.959 431.904 147.068C432.146 147.178 432.414 147.232 432.707 147.232C433.094 147.232 433.438 147.154 433.738 146.998C434.039 146.842 434.289 146.635 434.488 146.377L435.15 146.893C435.045 147.053 434.912 147.207 434.752 147.355C434.596 147.5 434.414 147.629 434.207 147.742C434 147.855 433.766 147.945 433.504 148.012C433.242 148.082 432.957 148.117 432.648 148.117ZM432.508 142.434C432.289 142.434 432.082 142.475 431.887 142.557C431.691 142.635 431.516 142.752 431.359 142.908C431.203 143.061 431.07 143.25 430.961 143.477C430.855 143.699 430.781 143.957 430.738 144.25H434.148V144.168C434.137 143.957 434.096 143.748 434.025 143.541C433.959 143.334 433.859 143.148 433.727 142.984C433.594 142.82 433.426 142.688 433.223 142.586C433.023 142.484 432.785 142.434 432.508 142.434ZM439.855 148.117C439.41 148.117 439 148.041 438.625 147.889C438.254 147.736 437.936 147.523 437.67 147.25C437.404 146.977 437.197 146.652 437.049 146.277C436.9 145.902 436.826 145.494 436.826 145.053V144.807C436.826 144.295 436.908 143.838 437.072 143.436C437.236 143.029 437.453 142.688 437.723 142.41C437.996 142.129 438.305 141.914 438.648 141.766C438.996 141.617 439.352 141.543 439.715 141.543C440.172 141.543 440.57 141.623 440.91 141.783C441.254 141.939 441.539 142.158 441.766 142.439C441.992 142.717 442.16 143.045 442.27 143.424C442.383 143.803 442.439 144.213 442.439 144.654V145.141H437.91C437.922 145.43 437.977 145.701 438.074 145.955C438.176 146.209 438.312 146.432 438.484 146.623C438.66 146.811 438.869 146.959 439.111 147.068C439.354 147.178 439.621 147.232 439.914 147.232C440.301 147.232 440.645 147.154 440.945 146.998C441.246 146.842 441.496 146.635 441.695 146.377L442.357 146.893C442.252 147.053 442.119 147.207 441.959 147.355C441.803 147.5 441.621 147.629 441.414 147.742C441.207 147.855 440.973 147.945 440.711 148.012C440.449 148.082 440.164 148.117 439.855 148.117ZM439.715 142.434C439.496 142.434 439.289 142.475 439.094 142.557C438.898 142.635 438.723 142.752 438.566 142.908C438.41 143.061 438.277 143.25 438.168 143.477C438.062 143.699 437.988 143.957 437.945 144.25H441.355V144.168C441.344 143.957 441.303 143.748 441.232 143.541C441.166 143.334 441.066 143.148 440.934 142.984C440.801 142.82 440.633 142.688 440.43 142.586C440.23 142.484 439.992 142.434 439.715 142.434ZM456.678 148H455.594V145.293H452.5V148H451.416V141.66H452.5V144.408H455.594V141.66H456.678V148ZM461.477 148.117C461.031 148.117 460.621 148.041 460.246 147.889C459.875 147.736 459.557 147.523 459.291 147.25C459.025 146.977 458.818 146.652 458.67 146.277C458.521 145.902 458.447 145.494 458.447 145.053V144.807C458.447 144.295 458.529 143.838 458.693 143.436C458.857 143.029 459.074 142.688 459.344 142.41C459.617 142.129 459.926 141.914 460.27 141.766C460.617 141.617 460.973 141.543 461.336 141.543C461.793 141.543 462.191 141.623 462.531 141.783C462.875 141.939 463.16 142.158 463.387 142.439C463.613 142.717 463.781 143.045 463.891 143.424C464.004 143.803 464.061 144.213 464.061 144.654V145.141H459.531C459.543 145.43 459.598 145.701 459.695 145.955C459.797 146.209 459.934 146.432 460.105 146.623C460.281 146.811 460.49 146.959 460.732 147.068C460.975 147.178 461.242 147.232 461.535 147.232C461.922 147.232 462.266 147.154 462.566 146.998C462.867 146.842 463.117 146.635 463.316 146.377L463.979 146.893C463.873 147.053 463.74 147.207 463.58 147.355C463.424 147.5 463.242 147.629 463.035 147.742C462.828 147.855 462.594 147.945 462.332 148.012C462.07 148.082 461.785 148.117 461.477 148.117ZM461.336 142.434C461.117 142.434 460.91 142.475 460.715 142.557C460.52 142.635 460.344 142.752 460.188 142.908C460.031 143.061 459.898 143.25 459.789 143.477C459.684 143.699 459.609 143.957 459.566 144.25H462.977V144.168C462.965 143.957 462.924 143.748 462.854 143.541C462.787 143.334 462.688 143.148 462.555 142.984C462.422 142.82 462.254 142.688 462.051 142.586C461.852 142.484 461.613 142.434 461.336 142.434ZM471.584 142.539H469.053V148H467.963V142.539H465.473V141.66H471.584V142.539Z" fill="#646464"/>
<path d="M406.568 170.227C406.564 170.531 406.537 170.84 406.486 171.152C406.439 171.461 406.365 171.76 406.264 172.049C406.162 172.338 406.031 172.607 405.871 172.857C405.715 173.107 405.527 173.326 405.309 173.514C405.09 173.701 404.838 173.85 404.553 173.959C404.271 174.064 403.955 174.117 403.604 174.117C403.252 174.117 402.934 174.064 402.648 173.959C402.367 173.85 402.117 173.701 401.898 173.514C401.68 173.326 401.49 173.107 401.33 172.857C401.17 172.604 401.037 172.332 400.932 172.043C400.83 171.754 400.754 171.455 400.703 171.146C400.652 170.838 400.625 170.531 400.621 170.227V169.254C400.625 168.949 400.65 168.643 400.697 168.334C400.748 168.021 400.824 167.721 400.926 167.432C401.031 167.143 401.162 166.873 401.318 166.623C401.479 166.369 401.668 166.148 401.887 165.961C402.105 165.77 402.355 165.621 402.637 165.516C402.922 165.406 403.24 165.352 403.592 165.352C403.943 165.352 404.262 165.406 404.547 165.516C404.832 165.621 405.084 165.768 405.303 165.955C405.521 166.143 405.709 166.363 405.865 166.617C406.025 166.867 406.156 167.137 406.258 167.426C406.363 167.715 406.439 168.016 406.486 168.328C406.537 168.641 406.564 168.949 406.568 169.254V170.227ZM405.496 169.242C405.492 169.039 405.479 168.828 405.455 168.609C405.432 168.387 405.391 168.168 405.332 167.953C405.277 167.734 405.203 167.527 405.109 167.332C405.016 167.133 404.898 166.959 404.758 166.811C404.617 166.658 404.451 166.539 404.26 166.453C404.068 166.363 403.846 166.318 403.592 166.318C403.342 166.318 403.121 166.363 402.93 166.453C402.738 166.543 402.572 166.664 402.432 166.816C402.291 166.965 402.174 167.139 402.08 167.338C401.986 167.533 401.91 167.74 401.852 167.959C401.797 168.174 401.756 168.393 401.729 168.615C401.705 168.834 401.691 169.043 401.688 169.242V170.227C401.691 170.426 401.705 170.637 401.729 170.859C401.756 171.082 401.799 171.303 401.857 171.521C401.916 171.736 401.992 171.943 402.086 172.143C402.18 172.342 402.297 172.518 402.438 172.67C402.578 172.818 402.744 172.938 402.936 173.027C403.127 173.117 403.35 173.162 403.604 173.162C403.857 173.162 404.08 173.117 404.271 173.027C404.467 172.938 404.633 172.818 404.77 172.67C404.91 172.518 405.025 172.344 405.115 172.148C405.209 171.949 405.283 171.742 405.338 171.527C405.396 171.309 405.436 171.088 405.455 170.865C405.479 170.643 405.492 170.43 405.496 170.227V169.242ZM413.928 168.539H411.396V174H410.307V168.539H407.816V167.66H413.928V168.539ZM417.49 171.299H416.459V174H415.375V167.66H416.459V170.344H417.396L419.758 167.66H421.076L418.357 170.713L421.287 174H419.91L417.49 171.299ZM426.807 174C426.764 173.918 426.729 173.816 426.701 173.695C426.678 173.57 426.66 173.441 426.648 173.309C426.539 173.418 426.416 173.521 426.279 173.619C426.146 173.717 425.998 173.803 425.834 173.877C425.674 173.951 425.502 174.01 425.318 174.053C425.135 174.096 424.939 174.117 424.732 174.117C424.396 174.117 424.092 174.068 423.818 173.971C423.549 173.873 423.318 173.742 423.127 173.578C422.939 173.41 422.793 173.213 422.688 172.986C422.586 172.756 422.535 172.508 422.535 172.242C422.535 171.895 422.604 171.59 422.74 171.328C422.881 171.066 423.078 170.85 423.332 170.678C423.586 170.502 423.891 170.371 424.246 170.285C424.605 170.199 425.006 170.156 425.447 170.156H426.631V169.658C426.631 169.467 426.596 169.295 426.525 169.143C426.455 168.99 426.355 168.861 426.227 168.756C426.098 168.646 425.939 168.562 425.752 168.504C425.568 168.445 425.361 168.416 425.131 168.416C424.916 168.416 424.723 168.443 424.551 168.498C424.383 168.553 424.24 168.625 424.123 168.715C424.006 168.805 423.914 168.912 423.848 169.037C423.785 169.158 423.754 169.285 423.754 169.418H422.664C422.668 169.188 422.727 168.961 422.84 168.738C422.957 168.516 423.123 168.316 423.338 168.141C423.557 167.961 423.82 167.816 424.129 167.707C424.441 167.598 424.795 167.543 425.189 167.543C425.549 167.543 425.883 167.588 426.191 167.678C426.5 167.764 426.766 167.896 426.988 168.076C427.215 168.252 427.393 168.473 427.521 168.738C427.65 169.004 427.715 169.314 427.715 169.67V172.617C427.715 172.828 427.734 173.053 427.773 173.291C427.812 173.525 427.867 173.73 427.938 173.906V174H426.807ZM424.891 173.174C425.102 173.174 425.299 173.146 425.482 173.092C425.666 173.037 425.832 172.965 425.98 172.875C426.133 172.785 426.264 172.684 426.373 172.57C426.482 172.453 426.568 172.332 426.631 172.207V170.924H425.623C424.99 170.924 424.498 171.018 424.146 171.205C423.795 171.393 423.619 171.688 423.619 172.09C423.619 172.246 423.645 172.391 423.695 172.523C423.75 172.656 423.83 172.771 423.936 172.869C424.041 172.963 424.174 173.037 424.334 173.092C424.494 173.146 424.68 173.174 424.891 173.174ZM432.555 170.309C433.055 170.309 433.43 170.23 433.68 170.074C433.93 169.914 434.055 169.688 434.055 169.395C434.055 169.262 434.02 169.137 433.949 169.02C433.883 168.902 433.783 168.801 433.65 168.715C433.521 168.625 433.359 168.555 433.164 168.504C432.969 168.453 432.744 168.428 432.49 168.428C432.264 168.428 432.049 168.453 431.846 168.504C431.643 168.555 431.463 168.625 431.307 168.715C431.154 168.801 431.031 168.906 430.938 169.031C430.848 169.152 430.803 169.285 430.803 169.43H429.719C429.723 169.137 429.799 168.875 429.947 168.645C430.1 168.41 430.301 168.213 430.551 168.053C430.805 167.889 431.098 167.764 431.43 167.678C431.766 167.592 432.119 167.549 432.49 167.549C432.881 167.549 433.238 167.588 433.562 167.666C433.887 167.744 434.166 167.861 434.4 168.018C434.635 168.17 434.816 168.361 434.945 168.592C435.074 168.818 435.139 169.084 435.139 169.389C435.139 169.682 435.035 169.947 434.828 170.186C434.621 170.42 434.34 170.605 433.984 170.742C434.387 170.863 434.699 171.047 434.922 171.293C435.148 171.539 435.262 171.848 435.262 172.219C435.262 172.523 435.189 172.793 435.045 173.027C434.904 173.262 434.709 173.461 434.459 173.625C434.209 173.785 433.916 173.906 433.58 173.988C433.244 174.07 432.881 174.111 432.49 174.111C432.256 174.111 432.021 174.094 431.787 174.059C431.557 174.027 431.336 173.977 431.125 173.906C430.914 173.836 430.717 173.748 430.533 173.643C430.35 173.533 430.189 173.406 430.053 173.262C429.92 173.113 429.814 172.945 429.736 172.758C429.658 172.566 429.619 172.355 429.619 172.125H430.703C430.703 172.277 430.748 172.422 430.838 172.559C430.928 172.691 431.053 172.811 431.213 172.916C431.373 173.018 431.562 173.1 431.781 173.162C432 173.221 432.236 173.25 432.49 173.25C432.74 173.25 432.969 173.225 433.176 173.174C433.383 173.119 433.559 173.045 433.703 172.951C433.852 172.857 433.965 172.748 434.043 172.623C434.125 172.498 434.166 172.363 434.166 172.219C434.166 172.039 434.129 171.887 434.055 171.762C433.98 171.633 433.873 171.529 433.732 171.451C433.592 171.369 433.422 171.311 433.223 171.275C433.023 171.24 432.801 171.223 432.555 171.223H431.143V170.309H432.555ZM441.221 174C441.178 173.918 441.143 173.816 441.115 173.695C441.092 173.57 441.074 173.441 441.062 173.309C440.953 173.418 440.83 173.521 440.693 173.619C440.561 173.717 440.412 173.803 440.248 173.877C440.088 173.951 439.916 174.01 439.732 174.053C439.549 174.096 439.354 174.117 439.146 174.117C438.811 174.117 438.506 174.068 438.232 173.971C437.963 173.873 437.732 173.742 437.541 173.578C437.354 173.41 437.207 173.213 437.102 172.986C437 172.756 436.949 172.508 436.949 172.242C436.949 171.895 437.018 171.59 437.154 171.328C437.295 171.066 437.492 170.85 437.746 170.678C438 170.502 438.305 170.371 438.66 170.285C439.02 170.199 439.42 170.156 439.861 170.156H441.045V169.658C441.045 169.467 441.01 169.295 440.939 169.143C440.869 168.99 440.77 168.861 440.641 168.756C440.512 168.646 440.354 168.562 440.166 168.504C439.982 168.445 439.775 168.416 439.545 168.416C439.33 168.416 439.137 168.443 438.965 168.498C438.797 168.553 438.654 168.625 438.537 168.715C438.42 168.805 438.328 168.912 438.262 169.037C438.199 169.158 438.168 169.285 438.168 169.418H437.078C437.082 169.188 437.141 168.961 437.254 168.738C437.371 168.516 437.537 168.316 437.752 168.141C437.971 167.961 438.234 167.816 438.543 167.707C438.855 167.598 439.209 167.543 439.604 167.543C439.963 167.543 440.297 167.588 440.605 167.678C440.914 167.764 441.18 167.896 441.402 168.076C441.629 168.252 441.807 168.473 441.936 168.738C442.064 169.004 442.129 169.314 442.129 169.67V172.617C442.129 172.828 442.148 173.053 442.188 173.291C442.227 173.525 442.281 173.73 442.352 173.906V174H441.221ZM439.305 173.174C439.516 173.174 439.713 173.146 439.896 173.092C440.08 173.037 440.246 172.965 440.395 172.875C440.547 172.785 440.678 172.684 440.787 172.57C440.896 172.453 440.982 172.332 441.045 172.207V170.924H440.037C439.404 170.924 438.912 171.018 438.561 171.205C438.209 171.393 438.033 171.688 438.033 172.09C438.033 172.246 438.059 172.391 438.109 172.523C438.164 172.656 438.244 172.771 438.35 172.869C438.455 172.963 438.588 173.037 438.748 173.092C438.908 173.146 439.094 173.174 439.305 173.174ZM449.963 168.539H447.432V174H446.342V168.539H443.852V167.66H449.963V168.539ZM452.5 170.062H454.439C454.818 170.062 455.154 170.111 455.447 170.209C455.744 170.303 455.994 170.436 456.197 170.607C456.4 170.779 456.555 170.984 456.66 171.223C456.77 171.461 456.824 171.723 456.824 172.008C456.824 172.289 456.771 172.553 456.666 172.799C456.561 173.041 456.406 173.252 456.203 173.432C456 173.607 455.75 173.746 455.453 173.848C455.156 173.949 454.818 174 454.439 174H451.416V167.66H452.5V170.062ZM452.5 170.947V173.115H454.439C454.666 173.115 454.861 173.086 455.025 173.027C455.189 172.969 455.324 172.891 455.43 172.793C455.535 172.695 455.611 172.582 455.658 172.453C455.709 172.324 455.734 172.189 455.734 172.049C455.734 171.912 455.709 171.779 455.658 171.65C455.607 171.518 455.529 171.4 455.424 171.299C455.318 171.193 455.184 171.109 455.02 171.047C454.859 170.98 454.666 170.947 454.439 170.947H452.5Z" fill="#646464"/>
<path d="M406.545 197.434C406.494 197.828 406.393 198.191 406.24 198.523C406.088 198.852 405.889 199.135 405.643 199.373C405.4 199.607 405.111 199.791 404.775 199.924C404.443 200.053 404.072 200.117 403.662 200.117C403.311 200.117 402.99 200.068 402.701 199.971C402.416 199.869 402.16 199.73 401.934 199.555C401.711 199.379 401.518 199.172 401.354 198.934C401.193 198.695 401.059 198.436 400.949 198.154C400.844 197.873 400.764 197.578 400.709 197.27C400.658 196.961 400.631 196.648 400.627 196.332V195.143C400.631 194.826 400.658 194.514 400.709 194.205C400.764 193.896 400.844 193.602 400.949 193.32C401.059 193.039 401.193 192.779 401.354 192.541C401.518 192.299 401.711 192.09 401.934 191.914C402.16 191.738 402.416 191.602 402.701 191.504C402.986 191.402 403.307 191.352 403.662 191.352C404.088 191.352 404.469 191.418 404.805 191.551C405.141 191.68 405.43 191.865 405.672 192.107C405.914 192.346 406.107 192.633 406.252 192.969C406.4 193.305 406.498 193.676 406.545 194.082H405.461C405.426 193.824 405.365 193.584 405.279 193.361C405.193 193.139 405.078 192.943 404.934 192.775C404.789 192.607 404.611 192.477 404.4 192.383C404.193 192.285 403.947 192.236 403.662 192.236C403.404 192.236 403.176 192.279 402.977 192.365C402.781 192.447 402.611 192.561 402.467 192.705C402.326 192.85 402.207 193.018 402.109 193.209C402.016 193.4 401.939 193.604 401.881 193.818C401.822 194.033 401.779 194.254 401.752 194.48C401.729 194.703 401.717 194.92 401.717 195.131V196.332C401.717 196.543 401.729 196.762 401.752 196.988C401.779 197.211 401.822 197.432 401.881 197.65C401.939 197.865 402.016 198.068 402.109 198.26C402.203 198.451 402.322 198.621 402.467 198.77C402.611 198.914 402.781 199.029 402.977 199.115C403.172 199.197 403.4 199.238 403.662 199.238C403.947 199.238 404.193 199.193 404.4 199.104C404.611 199.014 404.789 198.889 404.934 198.729C405.078 198.564 405.193 198.373 405.279 198.154C405.365 197.932 405.426 197.691 405.461 197.434H406.545ZM413.436 200H412.352V194.557H409.258V200H408.174V193.66H413.436V200ZM419.6 200C419.557 199.918 419.521 199.816 419.494 199.695C419.471 199.57 419.453 199.441 419.441 199.309C419.332 199.418 419.209 199.521 419.072 199.619C418.939 199.717 418.791 199.803 418.627 199.877C418.467 199.951 418.295 200.01 418.111 200.053C417.928 200.096 417.732 200.117 417.525 200.117C417.189 200.117 416.885 200.068 416.611 199.971C416.342 199.873 416.111 199.742 415.92 199.578C415.732 199.41 415.586 199.213 415.48 198.986C415.379 198.756 415.328 198.508 415.328 198.242C415.328 197.895 415.396 197.59 415.533 197.328C415.674 197.066 415.871 196.85 416.125 196.678C416.379 196.502 416.684 196.371 417.039 196.285C417.398 196.199 417.799 196.156 418.24 196.156H419.424V195.658C419.424 195.467 419.389 195.295 419.318 195.143C419.248 194.99 419.148 194.861 419.02 194.756C418.891 194.646 418.732 194.562 418.545 194.504C418.361 194.445 418.154 194.416 417.924 194.416C417.709 194.416 417.516 194.443 417.344 194.498C417.176 194.553 417.033 194.625 416.916 194.715C416.799 194.805 416.707 194.912 416.641 195.037C416.578 195.158 416.547 195.285 416.547 195.418H415.457C415.461 195.188 415.52 194.961 415.633 194.738C415.75 194.516 415.916 194.316 416.131 194.141C416.35 193.961 416.613 193.816 416.922 193.707C417.234 193.598 417.588 193.543 417.982 193.543C418.342 193.543 418.676 193.588 418.984 193.678C419.293 193.764 419.559 193.896 419.781 194.076C420.008 194.252 420.186 194.473 420.314 194.738C420.443 195.004 420.508 195.314 420.508 195.67V198.617C420.508 198.828 420.527 199.053 420.566 199.291C420.605 199.525 420.66 199.73 420.73 199.906V200H419.6ZM417.684 199.174C417.895 199.174 418.092 199.146 418.275 199.092C418.459 199.037 418.625 198.965 418.773 198.875C418.926 198.785 419.057 198.684 419.166 198.57C419.275 198.453 419.361 198.332 419.424 198.207V196.924H418.416C417.783 196.924 417.291 197.018 416.939 197.205C416.588 197.393 416.412 197.688 416.412 198.09C416.412 198.246 416.438 198.391 416.488 198.523C416.543 198.656 416.623 198.771 416.729 198.869C416.834 198.963 416.967 199.037 417.127 199.092C417.287 199.146 417.473 199.174 417.684 199.174ZM425.16 198.564L426.508 193.66H427.861V200H426.777V196.092L425.535 200H424.785L423.508 195.951V200H422.424V193.66H423.824L425.16 198.564Z" fill="#646464"/>
</svg>
